<svg xmlns="http://www.w3.org/2000/svg" xmlns:xlink="http://www.w3.org/1999/xlink" width="500" zoomAndPan="magnify" viewBox="0 0 375 374.999991" height="500" preserveAspectRatio="xMidYMid meet" version="1.0"><defs><clipPath id="f472226ae3"><path d="M 4.285156 5.742188 L 371 5.742188 L 371 368.433594 L 4.285156 368.433594 Z M 4.285156 5.742188 " clip-rule="nonzero"/></clipPath><clipPath id="c5ea5381b0"><path d="M 79.285156 5.742188 L 295.714844 5.742188 C 337.136719 5.742188 370.714844 39.324219 370.714844 80.742188 L 370.714844 293.433594 C 370.714844 334.855469 337.136719 368.433594 295.714844 368.433594 L 79.285156 368.433594 C 37.863281 368.433594 4.285156 334.855469 4.285156 293.433594 L 4.285156 80.742188 C 4.285156 39.324219 37.863281 5.742188 79.285156 5.742188 Z M 79.285156 5.742188 " clip-rule="nonzero"/></clipPath><clipPath id="b122b10f8a"><path d="M 26.660156 26.660156 L 348.410156 26.660156 L 348.410156 348.410156 L 26.660156 348.410156 Z M 26.660156 26.660156 " clip-rule="nonzero"/></clipPath><clipPath id="6de992726b"><path d="M 139.285156 183.707031 L 251.785156 183.707031 L 251.785156 296.207031 L 139.285156 296.207031 Z M 139.285156 183.707031 " clip-rule="nonzero"/></clipPath><clipPath id="a19e634734"><path d="M 133 189.988281 L 203 189.988281 L 203 289 L 133 289 Z M 133 189.988281 " clip-rule="nonzero"/></clipPath><clipPath id="6bfbd9b108"><path d="M 193 208 L 220 208 L 220 289.738281 L 193 289.738281 Z M 193 208 " clip-rule="nonzero"/></clipPath><clipPath id="a6b6fbc0c4"><path d="M 255 208 L 282 208 L 282 289.738281 L 255 289.738281 Z M 255 208 " clip-rule="nonzero"/></clipPath></defs><g clip-path="url(#f472226ae3)"><g clip-path="url(#c5ea5381b0)"><path fill="#4d4da0" d="M 4.285156 5.742188 L 371.226562 5.742188 L 371.226562 368.433594 L 4.285156 368.433594 Z M 4.285156 5.742188 " fill-opacity="1" fill-rule="nonzero"/></g></g><path fill="#ffffff" d="M 143.671875 221.957031 L 172.496094 221.957031 L 172.496094 232.84375 L 143.671875 232.84375 Z M 143.671875 221.957031 " fill-opacity="1" fill-rule="nonzero"/><path fill="#ffffff" d="M 163.527344 262.484375 L 152.640625 262.484375 L 152.640625 215.023438 C 152.640625 204.15625 161.480469 195.316406 172.351562 195.316406 L 180.023438 195.316406 L 180.023438 206.203125 L 172.351562 206.203125 C 167.484375 206.203125 163.527344 210.160156 163.527344 215.023438 Z M 163.527344 262.484375 " fill-opacity="1" fill-rule="nonzero"/><path fill="#ffffff" d="M 182.207031 265.121094 C 179.234375 260.5625 174.289062 250.914062 174.59375 237.527344 C 174.871094 225.269531 179.484375 216.445312 182.210938 212.277344 L 191.320312 218.230469 C 189.230469 221.429688 185.695312 228.222656 185.476562 237.777344 C 185.230469 248.621094 189.484375 256.351562 191.324219 259.171875 Z M 182.207031 265.121094 " fill-opacity="1" fill-rule="nonzero"/><path fill="#ffffff" d="M 220.671875 257.195312 L 209.6875 246.210938 L 198.703125 257.195312 L 191.007812 249.496094 L 201.992188 238.511719 L 191.007812 227.53125 L 198.703125 219.832031 L 209.6875 230.816406 L 220.671875 219.832031 L 228.367188 227.53125 L 217.386719 238.511719 L 228.367188 249.496094 Z M 220.671875 257.195312 " fill-opacity="1" fill-rule="nonzero"/><path fill="#ffffff" d="M 237.570312 265.121094 L 228.453125 259.171875 C 230.296875 256.351562 234.550781 248.621094 234.300781 237.777344 C 234.085938 228.21875 230.546875 221.429688 228.457031 218.230469 L 237.570312 212.277344 C 240.292969 216.445312 244.90625 225.269531 245.183594 237.527344 C 245.488281 250.914062 240.546875 260.5625 237.570312 265.121094 Z M 237.570312 265.121094 " fill-opacity="1" fill-rule="nonzero"/><path fill="#ffffff" d="M 54.574219 328.214844 L 43.941406 325.871094 C 74.199219 188.753906 108.46875 120.894531 148.707031 118.414062 C 167.90625 117.246094 182.824219 130.933594 197.269531 144.183594 C 211.429688 157.179688 224.804688 169.453125 240.890625 167.429688 C 259.109375 165.144531 285.507812 142.972656 308.925781 51.496094 L 297.445312 57.105469 L 292.664062 47.324219 L 321.191406 33.382812 L 334.917969 62.011719 L 325.101562 66.71875 L 319.339844 54.707031 C 299.050781 133.84375 273.800781 174.273438 242.246094 178.230469 C 221.164062 180.875 205.273438 166.300781 189.910156 152.207031 C 176.554688 139.953125 163.9375 128.402344 149.375 129.277344 C 125.832031 130.730469 90.273438 166.421875 54.574219 328.214844 Z M 54.574219 328.214844 " fill-opacity="1" fill-rule="nonzero"/><path fill="#ffffff" d="M 54.574219 328.929688 L 43.941406 326.585938 C 74.199219 189.46875 108.46875 121.609375 148.707031 119.128906 C 167.90625 117.945312 182.824219 131.648438 197.269531 144.898438 C 211.429688 157.890625 224.804688 170.167969 240.890625 168.144531 C 259.5625 165.800781 286.828125 142.578125 310.667969 45.253906 L 321.242188 47.84375 C 300.628906 131.976562 274.792969 174.863281 242.246094 178.945312 C 221.164062 181.59375 205.273438 167.015625 189.910156 152.921875 C 176.554688 140.667969 163.9375 129.101562 149.375 129.992188 C 125.832031 131.445312 90.273438 167.136719 54.574219 328.929688 Z M 54.574219 328.929688 " fill-opacity="1" fill-rule="nonzero"/><g clip-path="url(#b122b10f8a)"><path fill="#ffffff" d="M 327.210938 348.355469 L 319.484375 340.6875 L 327.625 332.484375 L 42.519531 332.484375 L 42.519531 47.679688 L 34.347656 55.914062 L 26.621094 48.246094 L 47.964844 26.746094 L 69.304688 48.246094 L 61.578125 55.914062 L 53.40625 47.679688 L 53.40625 321.601562 L 327.625 321.601562 L 319.484375 313.398438 L 327.210938 305.730469 L 348.363281 327.042969 Z M 327.210938 348.355469 " fill-opacity="1" fill-rule="nonzero"/><path fill="#ffffff" d="M 327.210938 348.355469 L 319.484375 340.6875 L 327.625 332.484375 L 42.519531 332.484375 L 42.519531 47.679688 L 34.347656 55.914062 L 26.621094 48.246094 L 47.964844 26.746094 L 69.304688 48.246094 L 61.578125 55.914062 L 53.40625 47.679688 L 53.40625 321.601562 L 327.625 321.601562 L 319.484375 313.398438 L 327.210938 305.730469 L 348.363281 327.042969 Z M 327.210938 348.355469 " fill-opacity="1" fill-rule="nonzero"/></g><g clip-path="url(#6de992726b)"><path fill="#4d4da0" d="M 139.285156 183.707031 L 251.785156 183.707031 L 251.785156 296.207031 L 139.285156 296.207031 Z M 139.285156 183.707031 " fill-opacity="1" fill-rule="nonzero"/></g><g clip-path="url(#a19e634734)"><path fill="#ffffff" d="M 153.472656 284.988281 C 156.613281 282.785156 159.039062 279.683594 160.726562 275.679688 C 162.425781 271.679688 163.714844 267.6875 164.609375 263.695312 L 174.066406 222.753906 L 186.332031 222.753906 L 187.953125 217.292969 L 175.328125 217.292969 L 175.761719 215.433594 L 177.082031 209.691406 C 177.566406 207.445312 178.03125 205.703125 178.480469 204.464844 C 179.445312 201.851562 180.316406 199.949219 181.074219 198.761719 C 181.839844 197.566406 182.761719 196.65625 183.847656 196.019531 C 184.929688 195.386719 186.042969 195.066406 187.183594 195.066406 C 188.085938 195.066406 188.945312 195.304688 189.777344 195.773438 C 190.597656 196.25 191.648438 197.195312 192.875 198.613281 C 193.984375 199.832031 194.972656 200.679688 195.828125 201.148438 C 196.484375 201.519531 197.226562 201.707031 198.0625 201.707031 C 199.238281 201.707031 200.257812 201.28125 201.136719 200.4375 C 202.015625 199.597656 202.453125 198.613281 202.453125 197.5 C 202.453125 195.644531 201.390625 193.925781 199.253906 192.355469 C 197.125 190.773438 194.175781 189.988281 190.394531 189.988281 C 184.792969 189.988281 180.183594 191.59375 176.578125 194.804688 C 172.964844 198.015625 170.355469 203.214844 168.738281 210.417969 L 167.597656 215.433594 L 167.175781 217.292969 L 156.722656 217.292969 L 155.101562 222.753906 L 165.9375 222.753906 L 155.484375 268.71875 C 154.25 274.464844 152.890625 278.214844 151.402344 279.972656 C 149.917969 281.734375 148.199219 282.605469 146.242188 282.605469 C 145.671875 282.605469 145.089844 282.457031 144.535156 282.152344 C 143.964844 281.851562 143.097656 281.175781 141.941406 280.125 C 140.289062 278.640625 138.789062 277.898438 137.417969 277.898438 C 136.253906 277.898438 135.273438 278.292969 134.476562 279.082031 C 133.660156 279.875 133.257812 280.835938 133.257812 281.945312 C 133.257812 283.535156 134.15625 284.992188 135.953125 286.304688 C 137.746094 287.625 140.15625 288.285156 143.15625 288.285156 C 146.882812 288.285156 150.324219 287.1875 153.472656 284.988281 Z M 153.472656 284.988281 " fill-opacity="1" fill-rule="nonzero"/></g><g clip-path="url(#6bfbd9b108)"><path fill="#ffffff" d="M 210.824219 222.578125 C 212.859375 218.300781 215.695312 214.34375 219.316406 210.691406 L 216.773438 208.183594 C 213.65625 210.449219 210.816406 213.300781 208.226562 216.742188 C 205.648438 220.175781 203.25 224.554688 201.035156 229.863281 C 198.816406 235.171875 196.976562 241.332031 195.511719 248.339844 C 194.050781 255.34375 193.328125 261.503906 193.328125 266.828125 C 193.328125 271.78125 193.988281 276.429688 195.320312 280.761719 C 196.363281 284.183594 198.023438 287.304688 200.292969 290.105469 L 203.140625 288.023438 C 201.832031 285.953125 200.855469 283.710938 200.210938 281.289062 C 199.558594 278.871094 199.230469 276.386719 199.230469 273.835938 C 199.230469 267.863281 200.484375 259.25 203.003906 248 C 205.527344 236.738281 208.132812 228.269531 210.824219 222.578125 Z M 210.824219 222.578125 " fill-opacity="1" fill-rule="nonzero"/></g><path fill="#ffffff" d="M 215.238281 270.652344 C 217.925781 270.652344 220.65625 269.460938 223.414062 267.085938 C 226.175781 264.703125 229.695312 259.59375 233.96875 251.746094 L 237.449219 261.570312 C 238.699219 265.078125 240.09375 267.46875 241.636719 268.742188 C 243.175781 270.011719 245.164062 270.652344 247.601562 270.652344 C 249.644531 270.652344 251.605469 270.113281 253.503906 269.03125 C 255.40625 267.949219 257.46875 266.015625 259.707031 263.230469 L 256.992188 260.96875 C 254.410156 263.535156 252.804688 265.003906 252.195312 265.375 C 251.3125 265.890625 250.402344 266.148438 249.472656 266.148438 C 248.429688 266.148438 247.402344 265.632812 246.410156 264.59375 C 245.417969 263.570312 244.378906 261.449219 243.269531 258.25 L 239.964844 248.792969 L 245.5 240.332031 C 246.972656 238.378906 248.359375 237.015625 249.671875 236.253906 C 250.96875 235.488281 252.378906 235.101562 253.882812 235.101562 C 254.390625 235.101562 255.054688 235.121094 255.875 235.164062 C 256.441406 235.210938 256.910156 235.230469 257.277344 235.230469 C 258.609375 235.230469 259.664062 234.910156 260.429688 234.277344 C 261.195312 233.636719 261.574219 232.796875 261.574219 231.746094 C 261.574219 230.644531 261.160156 229.730469 260.324219 229.007812 C 259.488281 228.285156 258.332031 227.925781 256.855469 227.925781 C 254.273438 227.925781 251.652344 229.015625 248.992188 231.207031 C 245.394531 234.132812 241.90625 238.617188 238.53125 244.667969 L 232.679688 227.925781 L 229.710938 227.925781 C 228.191406 228.886719 226.800781 229.632812 225.53125 230.152344 C 224.28125 230.683594 222.785156 231.109375 221.070312 231.453125 L 220.21875 234.9375 L 228.039062 234.9375 L 232.445312 247.382812 C 229.53125 252.417969 227.75 255.40625 227.101562 256.34375 C 225.542969 258.71875 224.277344 260.367188 223.300781 261.292969 C 222.320312 262.210938 221.457031 262.828125 220.710938 263.136719 C 219.960938 263.449219 219.164062 263.601562 218.3125 263.601562 C 217.890625 263.601562 217.351562 263.546875 216.703125 263.433594 C 215.828125 263.296875 215.171875 263.226562 214.746094 263.226562 C 213.648438 263.226562 212.710938 263.585938 211.921875 264.304688 C 211.144531 265.027344 210.761719 265.875 210.761719 266.828125 C 210.761719 267.851562 211.179688 268.742188 212.039062 269.503906 C 212.859375 270.269531 213.933594 270.652344 215.238281 270.652344 Z M 215.238281 270.652344 " fill-opacity="1" fill-rule="nonzero"/><g clip-path="url(#a6b6fbc0c4)"><path fill="#ffffff" d="M 266.539062 281.5625 C 269.121094 278.140625 271.53125 273.769531 273.738281 268.460938 C 275.960938 263.148438 277.789062 256.992188 279.230469 249.988281 C 280.679688 242.980469 281.398438 236.804688 281.398438 231.453125 C 281.398438 226.527344 280.738281 221.902344 279.40625 217.566406 C 278.359375 214.113281 276.703125 210.980469 274.4375 208.183594 L 271.585938 210.308594 C 272.890625 212.378906 273.875 214.621094 274.539062 217.035156 C 275.199219 219.453125 275.546875 221.929688 275.546875 224.445312 C 275.546875 230.449219 274.277344 239.074219 271.777344 250.332031 C 269.253906 261.585938 266.636719 270.058594 263.933594 275.746094 C 261.890625 280.023438 259.070312 283.972656 255.453125 287.59375 L 258.042969 290.097656 C 261.117188 287.832031 263.953125 284.988281 266.539062 281.5625 Z M 266.539062 281.5625 " fill-opacity="1" fill-rule="nonzero"/></g></svg>