<svg xmlns="http://www.w3.org/2000/svg" xmlns:xlink="http://www.w3.org/1999/xlink" width="500" zoomAndPan="magnify" viewBox="0 0 375 374.999991" height="500" preserveAspectRatio="xMidYMid meet" version="1.0"><defs><clipPath id="10783e649f"><path d="M 4.285156 5.742188 L 371 5.742188 L 371 368.433594 L 4.285156 368.433594 Z M 4.285156 5.742188 " clip-rule="nonzero"/></clipPath><clipPath id="829973723e"><path d="M 79.285156 5.742188 L 295.714844 5.742188 C 337.136719 5.742188 370.714844 39.324219 370.714844 80.742188 L 370.714844 293.433594 C 370.714844 334.855469 337.136719 368.433594 295.714844 368.433594 L 79.285156 368.433594 C 37.863281 368.433594 4.285156 334.855469 4.285156 293.433594 L 4.285156 80.742188 C 4.285156 39.324219 37.863281 5.742188 79.285156 5.742188 Z M 79.285156 5.742188 " clip-rule="nonzero"/></clipPath><clipPath id="2671783b1f"><path d="M 26.660156 26.660156 L 348.410156 26.660156 L 348.410156 348.410156 L 26.660156 348.410156 Z M 26.660156 26.660156 " clip-rule="nonzero"/></clipPath><clipPath id="f4106b97ec"><path d="M 139.285156 183.707031 L 251.785156 183.707031 L 251.785156 296.207031 L 139.285156 296.207031 Z M 139.285156 183.707031 " clip-rule="nonzero"/></clipPath><clipPath id="28c788d337"><path d="M 133 189.988281 L 203 189.988281 L 203 289 L 133 289 Z M 133 189.988281 " clip-rule="nonzero"/></clipPath><clipPath id="aec37ba0dd"><path d="M 193 208 L 220 208 L 220 289.738281 L 193 289.738281 Z M 193 208 " clip-rule="nonzero"/></clipPath><clipPath id="8e639f2e45"><path d="M 255 208 L 282 208 L 282 289.738281 L 255 289.738281 Z M 255 208 " clip-rule="nonzero"/></clipPath></defs><g clip-path="url(#10783e649f)"><g clip-path="url(#829973723e)"><path fill="#7f7fd2" d="M 4.285156 5.742188 L 371.226562 5.742188 L 371.226562 368.433594 L 4.285156 368.433594 Z M 4.285156 5.742188 " fill-opacity="1" fill-rule="nonzero"/></g></g><path fill="#000000" d="M 143.703125 222.007812 L 172.535156 222.007812 L 172.535156 232.894531 L 143.703125 232.894531 Z M 143.703125 222.007812 " fill-opacity="1" fill-rule="nonzero"/><path fill="#000000" d="M 163.5625 262.542969 L 152.671875 262.542969 L 152.671875 215.074219 C 152.671875 204.203125 161.515625 195.359375 172.386719 195.359375 L 180.0625 195.359375 L 180.0625 206.246094 L 172.386719 206.246094 C 167.519531 206.246094 163.5625 210.207031 163.5625 215.074219 Z M 163.5625 262.542969 " fill-opacity="1" fill-rule="nonzero"/><path fill="#000000" d="M 182.246094 265.183594 C 179.273438 260.621094 174.328125 250.972656 174.632812 237.582031 C 174.910156 225.320312 179.523438 216.496094 182.25 212.324219 L 191.363281 218.28125 C 189.273438 221.480469 185.734375 228.273438 185.515625 237.832031 C 185.269531 248.675781 189.523438 256.410156 191.367188 259.234375 Z M 182.246094 265.183594 " fill-opacity="1" fill-rule="nonzero"/><path fill="#000000" d="M 220.722656 257.253906 L 209.734375 246.265625 L 198.746094 257.253906 L 191.050781 249.554688 L 202.035156 238.566406 L 191.050781 227.582031 L 198.746094 219.882812 L 209.734375 230.867188 L 220.722656 219.882812 L 228.417969 227.582031 L 217.433594 238.566406 L 228.417969 249.554688 Z M 220.722656 257.253906 " fill-opacity="1" fill-rule="nonzero"/><path fill="#000000" d="M 237.625 265.183594 L 228.507812 259.234375 C 230.347656 256.410156 234.601562 248.675781 234.355469 237.832031 C 234.136719 228.273438 230.597656 221.480469 228.507812 218.28125 L 237.625 212.324219 C 240.347656 216.496094 244.960938 225.320312 245.238281 237.582031 C 245.546875 250.972656 240.601562 260.621094 237.625 265.183594 Z M 237.625 265.183594 " fill-opacity="1" fill-rule="nonzero"/><path fill="#000000" d="M 54.578125 328.292969 L 43.945312 325.945312 C 74.210938 188.792969 108.488281 120.917969 148.738281 118.4375 C 167.945312 117.269531 182.863281 130.960938 197.3125 144.214844 C 211.476562 157.210938 224.855469 169.488281 240.945312 167.46875 C 259.167969 165.179688 285.574219 143.003906 308.996094 51.5 L 297.515625 57.113281 L 292.734375 47.328125 L 321.265625 33.386719 L 334.996094 62.023438 L 325.179688 66.730469 L 319.414062 54.710938 C 299.117188 133.871094 273.863281 174.308594 242.300781 178.269531 C 221.210938 180.914062 205.316406 166.335938 189.953125 152.238281 C 176.59375 139.980469 163.972656 128.425781 149.40625 129.304688 C 125.859375 130.757812 90.289062 166.457031 54.582031 328.292969 Z M 54.578125 328.292969 " fill-opacity="1" fill-rule="nonzero"/><path fill="#000000" d="M 54.578125 329.007812 L 43.945312 326.660156 C 74.210938 189.507812 108.488281 121.632812 148.738281 119.152344 C 167.945312 117.96875 182.863281 131.675781 197.3125 144.929688 C 211.476562 157.925781 224.855469 170.203125 240.945312 168.179688 C 259.625 165.835938 286.894531 142.609375 310.738281 45.257812 L 321.316406 47.847656 C 300.699219 132.003906 274.855469 174.898438 242.300781 178.984375 C 221.210938 181.632812 205.316406 167.050781 189.953125 152.953125 C 176.59375 140.699219 163.972656 129.128906 149.40625 130.019531 C 125.859375 131.46875 90.289062 167.171875 54.582031 329.007812 Z M 54.578125 329.007812 " fill-opacity="1" fill-rule="nonzero"/><g clip-path="url(#2671783b1f)"><path fill="#000000" d="M 327.289062 348.4375 L 319.558594 340.765625 L 327.703125 332.5625 L 42.523438 332.5625 L 42.523438 47.6875 L 34.351562 55.921875 L 26.621094 48.25 L 47.96875 26.746094 L 69.316406 48.25 L 61.585938 55.921875 L 53.414062 47.6875 L 53.414062 321.675781 L 327.703125 321.675781 L 319.558594 313.472656 L 327.289062 305.804688 L 348.445312 327.121094 Z M 327.289062 348.4375 " fill-opacity="1" fill-rule="nonzero"/><path fill="#000000" d="M 327.289062 348.4375 L 319.558594 340.765625 L 327.703125 332.5625 L 42.523438 332.5625 L 42.523438 47.6875 L 34.351562 55.921875 L 26.621094 48.25 L 47.96875 26.746094 L 69.316406 48.25 L 61.585938 55.921875 L 53.414062 47.6875 L 53.414062 321.675781 L 327.703125 321.675781 L 319.558594 313.472656 L 327.289062 305.804688 L 348.445312 327.121094 Z M 327.289062 348.4375 " fill-opacity="1" fill-rule="nonzero"/></g><g clip-path="url(#f4106b97ec)"><path fill="#7f7fd2" d="M 139.285156 183.707031 L 251.785156 183.707031 L 251.785156 296.207031 L 139.285156 296.207031 Z M 139.285156 183.707031 " fill-opacity="1" fill-rule="nonzero"/></g><g clip-path="url(#28c788d337)"><path fill="#000000" d="M 153.472656 284.808594 C 156.613281 282.613281 159.039062 279.515625 160.726562 275.519531 C 162.425781 271.527344 163.714844 267.539062 164.609375 263.554688 L 174.066406 222.691406 L 186.332031 222.691406 L 187.953125 217.242188 L 175.328125 217.242188 L 175.761719 215.386719 L 177.082031 209.652344 C 177.566406 207.414062 178.03125 205.675781 178.480469 204.4375 C 179.445312 201.832031 180.316406 199.929688 181.074219 198.746094 C 181.839844 197.550781 182.761719 196.640625 183.847656 196.007812 C 184.929688 195.378906 186.042969 195.054688 187.183594 195.054688 C 188.085938 195.054688 188.945312 195.296875 189.777344 195.765625 C 190.597656 196.238281 191.648438 197.183594 192.875 198.597656 C 193.984375 199.8125 194.972656 200.660156 195.828125 201.128906 C 196.484375 201.5 197.226562 201.683594 198.0625 201.683594 C 199.238281 201.683594 200.257812 201.257812 201.136719 200.417969 C 202.015625 199.578125 202.453125 198.597656 202.453125 197.488281 C 202.453125 195.632812 201.390625 193.917969 199.253906 192.351562 C 197.125 190.773438 194.175781 189.988281 190.394531 189.988281 C 184.792969 189.988281 180.183594 191.589844 176.578125 194.792969 C 172.964844 198 170.355469 203.1875 168.738281 210.378906 L 167.597656 215.386719 L 167.175781 217.242188 L 156.722656 217.242188 L 155.101562 222.691406 L 165.9375 222.691406 L 155.484375 268.570312 C 154.25 274.304688 152.890625 278.050781 151.402344 279.804688 C 149.917969 281.558594 148.199219 282.433594 146.242188 282.433594 C 145.671875 282.433594 145.089844 282.285156 144.535156 281.980469 C 143.964844 281.679688 143.097656 281.003906 141.941406 279.957031 C 140.289062 278.476562 138.789062 277.734375 137.417969 277.734375 C 136.253906 277.734375 135.273438 278.125 134.476562 278.917969 C 133.660156 279.707031 133.257812 280.667969 133.257812 281.773438 C 133.257812 283.359375 134.15625 284.816406 135.953125 286.121094 C 137.746094 287.441406 140.15625 288.101562 143.15625 288.101562 C 146.882812 288.101562 150.324219 287.003906 153.472656 284.808594 Z M 153.472656 284.808594 " fill-opacity="1" fill-rule="nonzero"/></g><g clip-path="url(#aec37ba0dd)"><path fill="#000000" d="M 210.824219 222.515625 C 212.859375 218.25 215.695312 214.296875 219.316406 210.652344 L 216.773438 208.148438 C 213.65625 210.410156 210.816406 213.257812 208.226562 216.691406 C 205.648438 220.117188 203.25 224.492188 201.035156 229.789062 C 198.816406 235.085938 196.976562 241.234375 195.511719 248.230469 C 194.050781 255.222656 193.328125 261.371094 193.328125 266.683594 C 193.328125 271.628906 193.988281 276.269531 195.320312 280.589844 C 196.363281 284.007812 198.023438 287.121094 200.292969 289.917969 L 203.140625 287.839844 C 201.832031 285.773438 200.855469 283.535156 200.210938 281.117188 C 199.558594 278.703125 199.230469 276.222656 199.230469 273.679688 C 199.230469 267.714844 200.484375 259.121094 203.003906 247.890625 C 205.527344 236.652344 208.132812 228.195312 210.824219 222.515625 Z M 210.824219 222.515625 " fill-opacity="1" fill-rule="nonzero"/></g><path fill="#000000" d="M 215.238281 270.5 C 217.925781 270.5 220.65625 269.3125 223.414062 266.941406 C 226.175781 264.566406 229.695312 259.460938 233.96875 251.628906 L 237.449219 261.4375 C 238.699219 264.933594 240.09375 267.324219 241.636719 268.59375 C 243.175781 269.863281 245.164062 270.5 247.601562 270.5 C 249.644531 270.5 251.605469 269.960938 253.503906 268.882812 C 255.40625 267.800781 257.46875 265.871094 259.707031 263.09375 L 256.992188 260.835938 C 254.410156 263.398438 252.804688 264.863281 252.195312 265.234375 C 251.3125 265.746094 250.402344 266.003906 249.472656 266.003906 C 248.429688 266.003906 247.402344 265.492188 246.410156 264.457031 C 245.417969 263.429688 244.378906 261.316406 243.269531 258.121094 L 239.964844 248.679688 L 245.5 240.238281 C 246.972656 238.285156 248.359375 236.929688 249.671875 236.164062 C 250.96875 235.402344 252.378906 235.015625 253.882812 235.015625 C 254.390625 235.015625 255.054688 235.039062 255.875 235.082031 C 256.441406 235.125 256.910156 235.148438 257.277344 235.148438 C 258.609375 235.148438 259.664062 234.824219 260.429688 234.191406 C 261.195312 233.554688 261.574219 232.714844 261.574219 231.667969 C 261.574219 230.566406 261.160156 229.65625 260.324219 228.933594 C 259.488281 228.214844 258.332031 227.851562 256.855469 227.851562 C 254.273438 227.851562 251.652344 228.945312 248.992188 231.128906 C 245.394531 234.050781 241.90625 238.527344 238.53125 244.566406 L 232.679688 227.851562 L 229.710938 227.851562 C 228.191406 228.8125 226.800781 229.558594 225.53125 230.078125 C 224.28125 230.605469 222.785156 231.03125 221.070312 231.375 L 220.21875 234.851562 L 228.039062 234.851562 L 232.445312 247.273438 C 229.53125 252.300781 227.75 255.28125 227.101562 256.21875 C 225.542969 258.589844 224.277344 260.238281 223.300781 261.15625 C 222.320312 262.074219 221.457031 262.691406 220.710938 263 C 219.960938 263.3125 219.164062 263.464844 218.3125 263.464844 C 217.890625 263.464844 217.351562 263.410156 216.703125 263.292969 C 215.828125 263.160156 215.171875 263.085938 214.746094 263.085938 C 213.648438 263.085938 212.710938 263.449219 211.921875 264.167969 C 211.144531 264.886719 210.761719 265.730469 210.761719 266.683594 C 210.761719 267.703125 211.179688 268.59375 212.039062 269.355469 C 212.859375 270.117188 213.933594 270.5 215.238281 270.5 Z M 215.238281 270.5 " fill-opacity="1" fill-rule="nonzero"/><g clip-path="url(#8e639f2e45)"><path fill="#000000" d="M 266.539062 281.390625 C 269.121094 277.972656 271.53125 273.613281 273.738281 268.316406 C 275.960938 263.011719 277.789062 256.867188 279.230469 249.875 C 280.679688 242.882812 281.398438 236.714844 281.398438 231.375 C 281.398438 226.457031 280.738281 221.839844 279.40625 217.511719 C 278.359375 214.066406 276.703125 210.941406 274.4375 208.148438 L 271.585938 210.269531 C 272.890625 212.335938 273.875 214.574219 274.539062 216.984375 C 275.199219 219.398438 275.546875 221.867188 275.546875 224.382812 C 275.546875 230.371094 274.277344 238.984375 271.777344 250.21875 C 269.253906 261.453125 266.636719 269.90625 263.933594 275.585938 C 261.890625 279.855469 259.070312 283.796875 255.453125 287.410156 L 258.042969 289.910156 C 261.117188 287.648438 263.953125 284.808594 266.539062 281.390625 Z M 266.539062 281.390625 " fill-opacity="1" fill-rule="nonzero"/></g></svg>