<svg xmlns="http://www.w3.org/2000/svg" xmlns:xlink="http://www.w3.org/1999/xlink" width="500" zoomAndPan="magnify" viewBox="0 0 375 374.999991" height="500" preserveAspectRatio="xMidYMid meet" version="1.0"><defs><clipPath id="4aacb357a4"><path d="M 46.875 46.875 L 328.191406 46.875 L 328.191406 328.191406 L 46.875 328.191406 Z M 46.875 46.875 " clip-rule="nonzero"/></clipPath><clipPath id="57144d7be2"><path d="M 140 189.675781 L 201 189.675781 L 201 276 L 140 276 Z M 140 189.675781 " clip-rule="nonzero"/></clipPath><clipPath id="93e3baaee5"><path d="M 192 205 L 216 205 L 216 276.886719 L 192 276.886719 Z M 192 205 " clip-rule="nonzero"/></clipPath><clipPath id="a5132451e8"><path d="M 246 205 L 270 205 L 270 276.886719 L 246 276.886719 Z M 246 205 " clip-rule="nonzero"/></clipPath></defs><path fill="#ffffff" d="M 149.179688 217.628906 L 174.382812 217.628906 L 174.382812 227.144531 L 149.179688 227.144531 Z M 149.179688 217.628906 " fill-opacity="1" fill-rule="nonzero"/><path fill="#ffffff" d="M 166.539062 253.0625 L 157.023438 253.0625 L 157.023438 211.566406 C 157.023438 202.0625 164.75 194.335938 174.253906 194.335938 L 180.964844 194.335938 L 180.964844 203.851562 L 174.253906 203.851562 C 170 203.851562 166.539062 207.3125 166.539062 211.566406 Z M 166.539062 253.0625 " fill-opacity="1" fill-rule="nonzero"/><path fill="#ffffff" d="M 182.871094 255.367188 C 180.273438 251.378906 175.949219 242.945312 176.214844 231.242188 C 176.460938 220.523438 180.492188 212.808594 182.875 209.164062 L 190.839844 214.371094 C 189.015625 217.167969 185.921875 223.105469 185.730469 231.457031 C 185.515625 240.9375 189.234375 247.699219 190.84375 250.167969 Z M 182.871094 255.367188 " fill-opacity="1" fill-rule="nonzero"/><path fill="#ffffff" d="M 216.503906 248.433594 L 206.898438 238.832031 L 197.296875 248.433594 L 190.566406 241.707031 L 200.167969 232.101562 L 190.566406 222.5 L 197.296875 215.769531 L 206.898438 225.371094 L 216.503906 215.769531 L 223.230469 222.5 L 213.628906 232.101562 L 223.230469 241.707031 Z M 216.503906 248.433594 " fill-opacity="1" fill-rule="nonzero"/><path fill="#ffffff" d="M 231.28125 255.367188 L 223.308594 250.167969 C 224.917969 247.699219 228.636719 240.9375 228.421875 231.457031 C 228.230469 223.101562 225.136719 217.164062 223.308594 214.371094 L 231.277344 209.164062 C 233.660156 212.808594 237.691406 220.523438 237.933594 231.242188 C 238.203125 242.945312 233.878906 251.378906 231.28125 255.367188 Z M 231.28125 255.367188 " fill-opacity="1" fill-rule="nonzero"/><path fill="#ffffff" d="M 71.277344 310.53125 L 61.984375 308.480469 C 88.4375 188.597656 118.402344 129.265625 153.582031 127.097656 C 170.371094 126.074219 183.414062 138.042969 196.039062 149.628906 C 208.421875 160.988281 220.113281 171.722656 234.179688 169.953125 C 250.109375 167.953125 273.191406 148.570312 293.664062 68.585938 L 283.628906 73.492188 L 279.449219 64.941406 L 304.390625 52.753906 L 316.390625 77.785156 L 307.808594 81.898438 L 302.773438 71.394531 C 285.03125 140.585938 262.953125 175.933594 235.367188 179.398438 C 216.933594 181.707031 203.039062 168.964844 189.605469 156.640625 C 177.929688 145.929688 166.898438 135.828125 154.167969 136.59375 C 133.582031 137.863281 102.492188 169.070312 71.277344 310.53125 Z M 71.277344 310.53125 " fill-opacity="1" fill-rule="nonzero"/><path fill="#ffffff" d="M 71.277344 311.15625 L 61.984375 309.105469 C 88.4375 189.21875 118.402344 129.890625 153.582031 127.722656 C 170.371094 126.683594 183.414062 138.667969 196.039062 150.253906 C 208.421875 161.613281 220.113281 172.347656 234.179688 170.578125 C 250.507812 168.527344 274.34375 148.222656 295.1875 63.128906 L 304.433594 65.394531 C 286.414062 138.953125 263.820312 176.449219 235.367188 180.019531 C 216.933594 182.335938 203.039062 169.589844 189.605469 157.265625 C 177.929688 146.554688 166.898438 136.441406 154.167969 137.21875 C 133.582031 138.488281 102.492188 169.695312 71.277344 311.15625 Z M 71.277344 311.15625 " fill-opacity="1" fill-rule="nonzero"/><g clip-path="url(#4aacb357a4)"><path fill="#ffffff" d="M 309.652344 328.140625 L 302.898438 321.433594 L 310.015625 314.265625 L 60.742188 314.265625 L 60.742188 65.253906 L 53.597656 72.449219 L 46.839844 65.746094 L 65.5 46.949219 L 84.15625 65.746094 L 77.402344 72.449219 L 70.257812 65.253906 L 70.257812 304.746094 L 310.015625 304.746094 L 302.898438 297.578125 L 309.652344 290.875 L 328.148438 309.507812 Z M 309.652344 328.140625 " fill-opacity="1" fill-rule="nonzero"/><path fill="#ffffff" d="M 309.652344 328.140625 L 302.898438 321.433594 L 310.015625 314.265625 L 60.742188 314.265625 L 60.742188 65.253906 L 53.597656 72.449219 L 46.839844 65.746094 L 65.5 46.949219 L 84.15625 65.746094 L 77.402344 72.449219 L 70.257812 65.253906 L 70.257812 304.746094 L 310.015625 304.746094 L 302.898438 297.578125 L 309.652344 290.875 L 328.148438 309.507812 Z M 309.652344 328.140625 " fill-opacity="1" fill-rule="nonzero"/></g><g clip-path="url(#57144d7be2)"><path fill="#ffffff" d="M 157.75 272.734375 C 160.496094 270.8125 162.617188 268.097656 164.089844 264.601562 C 165.574219 261.101562 166.703125 257.609375 167.484375 254.117188 L 175.753906 218.324219 L 186.480469 218.324219 L 187.898438 213.546875 L 176.859375 213.546875 L 177.234375 211.925781 L 178.390625 206.902344 C 178.816406 204.9375 179.222656 203.414062 179.613281 202.332031 C 180.457031 200.050781 181.21875 198.382812 181.882812 197.347656 C 182.550781 196.300781 183.355469 195.503906 184.308594 194.949219 C 185.253906 194.394531 186.226562 194.113281 187.226562 194.113281 C 188.011719 194.113281 188.761719 194.324219 189.492188 194.734375 C 190.207031 195.152344 191.125 195.976562 192.199219 197.21875 C 193.167969 198.28125 194.035156 199.023438 194.78125 199.433594 C 195.355469 199.757812 196.003906 199.921875 196.734375 199.921875 C 197.761719 199.921875 198.65625 199.546875 199.425781 198.8125 C 200.191406 198.078125 200.574219 197.21875 200.574219 196.246094 C 200.574219 194.621094 199.644531 193.117188 197.777344 191.746094 C 195.914062 190.363281 193.335938 189.675781 190.03125 189.675781 C 185.132812 189.675781 181.101562 191.078125 177.953125 193.886719 C 174.792969 196.691406 172.507812 201.238281 171.09375 207.535156 L 170.097656 211.925781 L 169.730469 213.546875 L 160.589844 213.546875 L 159.171875 218.324219 L 168.644531 218.324219 L 159.507812 258.511719 C 158.429688 263.535156 157.238281 266.816406 155.941406 268.351562 C 154.640625 269.890625 153.136719 270.652344 151.429688 270.652344 C 150.925781 270.652344 150.421875 270.523438 149.933594 270.257812 C 149.4375 269.996094 148.679688 269.402344 147.664062 268.484375 C 146.222656 267.1875 144.910156 266.539062 143.710938 266.539062 C 142.695312 266.539062 141.835938 266.882812 141.136719 267.574219 C 140.425781 268.265625 140.074219 269.105469 140.074219 270.078125 C 140.074219 271.464844 140.863281 272.742188 142.433594 273.886719 C 144 275.042969 146.105469 275.621094 148.730469 275.621094 C 151.988281 275.621094 154.996094 274.660156 157.75 272.734375 Z M 157.75 272.734375 " fill-opacity="1" fill-rule="nonzero"/></g><g clip-path="url(#93e3baaee5)"><path fill="#ffffff" d="M 207.894531 218.167969 C 209.671875 214.429688 212.152344 210.96875 215.320312 207.773438 L 213.09375 205.582031 C 210.367188 207.566406 207.886719 210.058594 205.621094 213.066406 C 203.367188 216.070312 201.273438 219.898438 199.332031 224.539062 C 197.394531 229.179688 195.785156 234.566406 194.507812 240.691406 C 193.226562 246.820312 192.597656 252.203125 192.597656 256.859375 C 192.597656 261.191406 193.175781 265.253906 194.339844 269.039062 C 195.25 272.035156 196.703125 274.761719 198.683594 277.210938 L 201.175781 275.390625 C 200.03125 273.582031 199.175781 271.617188 198.613281 269.503906 C 198.042969 267.386719 197.757812 265.214844 197.757812 262.984375 C 197.757812 257.761719 198.851562 250.230469 201.058594 240.394531 C 203.261719 230.550781 205.539062 223.144531 207.894531 218.167969 Z M 207.894531 218.167969 " fill-opacity="1" fill-rule="nonzero"/></g><path fill="#ffffff" d="M 211.753906 260.203125 C 214.101562 260.203125 216.488281 259.160156 218.898438 257.085938 C 221.316406 255.003906 224.390625 250.53125 228.128906 243.671875 L 231.171875 252.261719 C 232.265625 255.328125 233.484375 257.417969 234.832031 258.53125 C 236.179688 259.644531 237.917969 260.203125 240.046875 260.203125 C 241.832031 260.203125 243.546875 259.730469 245.210938 258.785156 C 246.871094 257.839844 248.675781 256.148438 250.632812 253.714844 L 248.261719 251.738281 C 246 253.980469 244.597656 255.265625 244.0625 255.589844 C 243.292969 256.039062 242.496094 256.261719 241.683594 256.261719 C 240.773438 256.261719 239.875 255.8125 239.007812 254.90625 C 238.136719 254.007812 237.230469 252.15625 236.261719 249.359375 L 233.371094 241.089844 L 238.210938 233.691406 C 239.5 231.984375 240.710938 230.792969 241.855469 230.125 C 242.992188 229.457031 244.226562 229.117188 245.539062 229.117188 C 245.984375 229.117188 246.566406 229.136719 247.28125 229.175781 C 247.777344 229.214844 248.1875 229.234375 248.507812 229.234375 C 249.671875 229.234375 250.59375 228.953125 251.265625 228.398438 C 251.933594 227.839844 252.265625 227.101562 252.265625 226.1875 C 252.265625 225.222656 251.902344 224.425781 251.171875 223.789062 C 250.441406 223.160156 249.429688 222.84375 248.140625 222.84375 C 245.882812 222.84375 243.589844 223.800781 241.265625 225.714844 C 238.117188 228.273438 235.066406 232.191406 232.117188 237.484375 L 227.003906 222.84375 L 224.40625 222.84375 C 223.078125 223.683594 221.859375 224.339844 220.753906 224.792969 C 219.660156 225.253906 218.351562 225.628906 216.851562 225.929688 L 216.105469 228.976562 L 222.945312 228.976562 L 226.796875 239.855469 C 224.25 244.257812 222.691406 246.871094 222.125 247.691406 C 220.761719 249.769531 219.65625 251.210938 218.800781 252.019531 C 217.945312 252.820312 217.191406 253.359375 216.535156 253.632812 C 215.882812 253.902344 215.1875 254.039062 214.441406 254.039062 C 214.074219 254.039062 213.601562 253.988281 213.03125 253.890625 C 212.269531 253.769531 211.695312 253.707031 211.324219 253.707031 C 210.363281 253.707031 209.542969 254.023438 208.855469 254.652344 C 208.171875 255.285156 207.835938 256.023438 207.835938 256.859375 C 207.835938 257.753906 208.203125 258.53125 208.953125 259.199219 C 209.671875 259.867188 210.613281 260.203125 211.753906 260.203125 Z M 211.753906 260.203125 " fill-opacity="1" fill-rule="nonzero"/><g clip-path="url(#a5132451e8)"><path fill="#ffffff" d="M 256.605469 269.742188 C 258.863281 266.75 260.972656 262.929688 262.898438 258.289062 C 264.84375 253.640625 266.441406 248.261719 267.703125 242.132812 C 268.96875 236.007812 269.597656 230.609375 269.597656 225.929688 C 269.597656 221.621094 269.019531 217.578125 267.855469 213.785156 C 266.9375 210.769531 265.492188 208.027344 263.511719 205.582031 L 261.019531 207.441406 C 262.160156 209.25 263.019531 211.214844 263.601562 213.324219 C 264.179688 215.4375 264.480469 217.601562 264.480469 219.804688 C 264.480469 225.050781 263.371094 232.59375 261.1875 242.433594 C 258.980469 252.277344 256.691406 259.679688 254.328125 264.65625 C 252.542969 268.394531 250.074219 271.847656 246.914062 275.011719 L 249.175781 277.203125 C 251.867188 275.222656 254.34375 272.734375 256.605469 269.742188 Z M 256.605469 269.742188 " fill-opacity="1" fill-rule="nonzero"/></g></svg>