<svg xmlns="http://www.w3.org/2000/svg" xmlns:xlink="http://www.w3.org/1999/xlink" width="500" zoomAndPan="magnify" viewBox="0 0 375 374.999991" height="500" preserveAspectRatio="xMidYMid meet" version="1.0"><defs><clipPath id="1af34a972b"><path d="M 46.875 46.875 L 328.125 46.875 L 328.125 328.125 L 46.875 328.125 Z M 46.875 46.875 " clip-rule="nonzero"/></clipPath></defs><path fill="#ffffff" d="M 149.183594 217.632812 L 174.386719 217.632812 L 174.386719 227.148438 L 149.183594 227.148438 Z M 149.183594 217.632812 " fill-opacity="1" fill-rule="nonzero"/><path fill="#ffffff" d="M 166.542969 253.066406 L 157.023438 253.066406 L 157.023438 211.570312 C 157.023438 202.066406 164.753906 194.339844 174.257812 194.339844 L 180.964844 194.339844 L 180.964844 203.855469 L 174.257812 203.855469 C 170.003906 203.855469 166.542969 207.316406 166.542969 211.570312 Z M 166.542969 253.066406 " fill-opacity="1" fill-rule="nonzero"/><path fill="#ffffff" d="M 182.875 255.371094 C 180.277344 251.386719 175.953125 242.949219 176.21875 231.246094 C 176.464844 220.527344 180.496094 212.8125 182.878906 209.167969 L 190.84375 214.375 C 189.019531 217.171875 185.925781 223.109375 185.734375 231.464844 C 185.519531 240.945312 189.238281 247.703125 190.847656 250.171875 Z M 182.875 255.371094 " fill-opacity="1" fill-rule="nonzero"/><path fill="#ffffff" d="M 216.507812 248.441406 L 206.902344 238.835938 L 197.300781 248.441406 L 190.570312 241.710938 L 200.171875 232.105469 L 190.570312 222.503906 L 197.300781 215.773438 L 206.902344 225.375 L 216.507812 215.773438 L 223.234375 222.503906 L 213.632812 232.105469 L 223.234375 241.710938 Z M 216.507812 248.441406 " fill-opacity="1" fill-rule="nonzero"/><path fill="#ffffff" d="M 231.285156 255.371094 L 223.3125 250.171875 C 224.921875 247.703125 228.640625 240.945312 228.425781 231.464844 C 228.234375 223.105469 225.140625 217.167969 223.3125 214.375 L 231.28125 209.167969 C 233.664062 212.8125 237.695312 220.527344 237.941406 231.246094 C 238.207031 242.949219 233.882812 251.386719 231.285156 255.371094 Z M 231.285156 255.371094 " fill-opacity="1" fill-rule="nonzero"/><path fill="#ffffff" d="M 71.277344 310.539062 L 61.984375 308.488281 C 88.4375 188.597656 118.402344 129.265625 153.585938 127.097656 C 170.371094 126.074219 183.417969 138.046875 196.042969 149.632812 C 208.425781 160.992188 220.121094 171.722656 234.1875 169.957031 C 250.117188 167.957031 273.195312 148.574219 293.671875 68.585938 L 283.632812 73.492188 L 279.453125 64.941406 L 304.394531 52.753906 L 316.398438 77.785156 L 307.816406 81.898438 L 302.777344 71.394531 C 285.035156 140.589844 262.960938 175.9375 235.371094 179.398438 C 216.9375 181.710938 203.042969 168.96875 189.609375 156.644531 C 177.933594 145.929688 166.902344 135.832031 154.171875 136.597656 C 133.585938 137.867188 102.496094 169.074219 71.277344 310.539062 Z M 71.277344 310.539062 " fill-opacity="1" fill-rule="nonzero"/><path fill="#ffffff" d="M 71.277344 311.164062 L 61.984375 309.113281 C 88.4375 189.222656 118.402344 129.890625 153.585938 127.722656 C 170.371094 126.6875 183.417969 138.667969 196.042969 150.253906 C 208.425781 161.613281 220.121094 172.347656 234.1875 170.582031 C 250.511719 168.53125 274.347656 148.226562 295.195312 63.128906 L 304.4375 65.394531 C 286.417969 138.957031 263.828125 176.453125 235.371094 180.023438 C 216.9375 182.339844 203.042969 169.59375 189.609375 157.269531 C 177.933594 146.554688 166.902344 136.441406 154.171875 137.222656 C 133.585938 138.492188 102.496094 169.699219 71.277344 311.164062 Z M 71.277344 311.164062 " fill-opacity="1" fill-rule="nonzero"/><g clip-path="url(#1af34a972b)"><path fill="#ffffff" d="M 309.660156 328.148438 L 302.90625 321.441406 L 310.023438 314.273438 L 60.742188 314.273438 L 60.742188 65.253906 L 53.597656 72.453125 L 46.839844 65.746094 L 65.5 46.949219 L 84.160156 65.746094 L 77.402344 72.453125 L 70.257812 65.253906 L 70.257812 304.753906 L 310.023438 304.753906 L 302.90625 297.585938 L 309.660156 290.878906 L 328.15625 309.511719 Z M 309.660156 328.148438 " fill-opacity="1" fill-rule="nonzero"/><path fill="#ffffff" d="M 309.660156 328.148438 L 302.90625 321.441406 L 310.023438 314.273438 L 60.742188 314.273438 L 60.742188 65.253906 L 53.597656 72.453125 L 46.839844 65.746094 L 65.5 46.949219 L 84.160156 65.746094 L 77.402344 72.453125 L 70.257812 65.253906 L 70.257812 304.753906 L 310.023438 304.753906 L 302.90625 297.585938 L 309.660156 290.878906 L 328.15625 309.511719 Z M 309.660156 328.148438 " fill-opacity="1" fill-rule="nonzero"/></g></svg>