<svg xmlns="http://www.w3.org/2000/svg" xmlns:xlink="http://www.w3.org/1999/xlink" width="500" zoomAndPan="magnify" viewBox="0 0 375 374.999991" height="500" preserveAspectRatio="xMidYMid meet" version="1.2"><defs><clipPath id="64055347ce"><path d="M 51 48 L 317 48 L 317 328.125 L 51 328.125 Z M 51 48 "/></clipPath></defs><g id="1cee5353e3"><g clip-rule="nonzero" clip-path="url(#64055347ce)"><path style=" stroke:none;fill-rule:nonzero;fill:#ffffff;fill-opacity:1;" d="M 284.773438 138.242188 C 282.199219 135.769531 279.507812 133.429688 276.707031 131.222656 C 273.902344 129.015625 270.996094 126.949219 267.988281 125.027344 C 264.980469 123.109375 261.886719 121.339844 258.703125 119.722656 C 255.523438 118.105469 252.269531 116.648438 248.945312 115.351562 C 245.621094 114.054688 242.238281 112.921875 238.804688 111.960938 C 235.367188 110.996094 231.890625 110.203125 228.378906 109.582031 C 224.863281 108.957031 221.328125 108.511719 217.769531 108.238281 C 214.210938 107.964844 210.648438 107.863281 207.078125 107.941406 L 105.765625 110.582031 L 139.796875 75 C 140.160156 74.640625 140.503906 74.261719 140.828125 73.867188 C 141.15625 73.472656 141.460938 73.066406 141.746094 72.640625 C 142.03125 72.214844 142.296875 71.777344 142.539062 71.328125 C 142.78125 70.878906 143 70.414062 143.199219 69.941406 C 143.394531 69.472656 143.566406 68.992188 143.714844 68.5 C 143.867188 68.011719 143.992188 67.515625 144.089844 67.015625 C 144.191406 66.511719 144.265625 66.007812 144.316406 65.5 C 144.367188 64.988281 144.394531 64.480469 144.394531 63.96875 C 144.394531 63.457031 144.367188 62.945312 144.316406 62.4375 C 144.265625 61.925781 144.191406 61.421875 144.089844 60.921875 C 143.992188 60.417969 143.867188 59.921875 143.714844 59.433594 C 143.566406 58.945312 143.394531 58.464844 143.199219 57.992188 C 143 57.519531 142.78125 57.058594 142.539062 56.609375 C 142.296875 56.15625 142.03125 55.71875 141.746094 55.296875 C 141.460938 54.871094 141.15625 54.460938 140.828125 54.066406 C 140.503906 53.671875 140.160156 53.296875 139.796875 52.933594 C 139.074219 52.21875 138.292969 51.578125 137.445312 51.015625 C 136.597656 50.453125 135.707031 49.976562 134.765625 49.589844 C 133.828125 49.203125 132.859375 48.910156 131.863281 48.710938 C 130.863281 48.515625 129.859375 48.417969 128.839844 48.417969 C 127.824219 48.417969 126.820312 48.515625 125.820312 48.710938 C 124.824219 48.910156 123.855469 49.203125 122.917969 49.589844 C 121.976562 49.976562 121.082031 50.453125 120.238281 51.015625 C 119.390625 51.578125 118.609375 52.21875 117.886719 52.933594 L 56.507812 116.332031 C 55.792969 117.054688 55.152344 117.835938 54.589844 118.683594 C 54.027344 119.53125 53.550781 120.421875 53.164062 121.363281 C 52.777344 122.300781 52.484375 123.269531 52.285156 124.265625 C 52.089844 125.265625 51.992188 126.269531 51.992188 127.289062 C 51.992188 128.304688 52.089844 129.3125 52.285156 130.308594 C 52.484375 131.304688 52.777344 132.273438 53.164062 133.210938 C 53.550781 134.152344 54.027344 135.046875 54.589844 135.890625 C 55.152344 136.738281 55.792969 137.523438 56.507812 138.242188 L 120.0625 199 C 121.503906 200.386719 123.148438 201.457031 125.003906 202.210938 C 126.855469 202.960938 128.785156 203.339844 130.785156 203.347656 C 132.898438 203.339844 134.925781 202.917969 136.871094 202.082031 C 138.8125 201.246094 140.511719 200.0625 141.972656 198.53125 C 142.335938 198.171875 142.679688 197.796875 143.003906 197.402344 C 143.332031 197.007812 143.636719 196.597656 143.921875 196.171875 C 144.207031 195.75 144.472656 195.3125 144.714844 194.859375 C 144.957031 194.410156 145.175781 193.949219 145.371094 193.476562 C 145.570312 193.003906 145.742188 192.523438 145.890625 192.035156 C 146.042969 191.542969 146.164062 191.046875 146.265625 190.546875 C 146.367188 190.046875 146.441406 189.539062 146.492188 189.03125 C 146.542969 188.523438 146.566406 188.011719 146.566406 187.5 C 146.566406 186.988281 146.542969 186.476562 146.492188 185.96875 C 146.441406 185.460938 146.367188 184.953125 146.265625 184.453125 C 146.164062 183.953125 146.042969 183.457031 145.890625 182.964844 C 145.742188 182.476562 145.570312 181.996094 145.371094 181.523438 C 145.175781 181.050781 144.957031 180.589844 144.714844 180.140625 C 144.472656 179.691406 144.207031 179.253906 143.921875 178.828125 C 143.636719 178.402344 143.332031 177.992188 143.003906 177.597656 C 142.679688 177.203125 142.335938 176.828125 141.972656 176.46875 L 104.835938 141.660156 L 207.855469 139.796875 C 210.371094 139.707031 212.886719 139.746094 215.398438 139.910156 C 217.914062 140.070312 220.410156 140.355469 222.894531 140.765625 C 225.378906 141.175781 227.839844 141.710938 230.269531 142.363281 C 232.703125 143.015625 235.097656 143.789062 237.449219 144.679688 C 239.804688 145.574219 242.109375 146.578125 244.367188 147.699219 C 246.621094 148.820312 248.816406 150.046875 250.949219 151.386719 C 253.082031 152.722656 255.144531 154.164062 257.136719 155.707031 C 259.125 157.25 261.035156 158.886719 262.863281 160.617188 C 264.242188 161.941406 265.574219 163.3125 266.855469 164.734375 C 268.132812 166.15625 269.359375 167.621094 270.53125 169.132812 C 271.703125 170.644531 272.816406 172.199219 273.871094 173.792969 C 274.929688 175.386719 275.925781 177.015625 276.863281 178.683594 C 277.796875 180.351562 278.671875 182.050781 279.480469 183.78125 C 280.292969 185.515625 281.039062 187.273438 281.71875 189.0625 C 282.402344 190.847656 283.015625 192.660156 283.5625 194.492188 C 284.109375 196.324219 284.589844 198.171875 285 200.039062 C 285.410156 201.910156 285.75 203.789062 286.023438 205.683594 C 286.292969 207.574219 286.496094 209.476562 286.625 211.382812 C 286.757812 213.292969 286.820312 215.203125 286.808594 217.113281 C 286.800781 219.027344 286.71875 220.933594 286.570312 222.839844 C 286.417969 224.75 286.199219 226.644531 285.90625 228.535156 C 285.617188 230.425781 285.257812 232.304688 284.828125 234.167969 C 284.398438 236.03125 283.898438 237.875 283.335938 239.703125 C 282.769531 241.53125 282.136719 243.332031 281.4375 245.113281 C 280.738281 246.894531 279.976562 248.644531 279.148438 250.367188 C 278.320312 252.09375 277.429688 253.785156 276.476562 255.441406 C 275.523438 257.097656 274.507812 258.71875 273.4375 260.304688 C 272.363281 261.886719 271.234375 263.425781 270.046875 264.925781 C 268.859375 266.425781 267.621094 267.882812 266.328125 269.289062 C 265.03125 270.699219 263.6875 272.054688 262.292969 273.363281 C 260.902344 274.675781 259.460938 275.929688 257.972656 277.132812 C 256.484375 278.335938 254.957031 279.480469 253.386719 280.570312 C 251.8125 281.660156 250.203125 282.691406 248.554688 283.660156 C 246.910156 284.632812 245.226562 285.539062 243.511719 286.386719 C 241.796875 287.234375 240.054688 288.015625 238.28125 288.734375 C 236.507812 289.453125 234.714844 290.101562 232.890625 290.6875 C 231.070312 291.273438 229.230469 291.792969 227.375 292.242188 C 225.515625 292.691406 223.640625 293.070312 221.753906 293.382812 C 219.867188 293.691406 217.972656 293.933594 216.066406 294.105469 C 214.164062 294.273438 212.253906 294.375 210.34375 294.40625 L 88.363281 297.046875 C 87.34375 297.046875 86.332031 297.148438 85.332031 297.347656 C 84.332031 297.546875 83.359375 297.839844 82.417969 298.230469 C 81.472656 298.621094 80.578125 299.097656 79.730469 299.667969 C 78.882812 300.234375 78.097656 300.878906 77.375 301.597656 C 76.652344 302.320312 76.011719 303.105469 75.441406 303.953125 C 74.875 304.800781 74.398438 305.699219 74.007812 306.640625 C 73.617188 307.582031 73.320312 308.554688 73.125 309.554688 C 72.925781 310.554688 72.824219 311.566406 72.824219 312.585938 C 72.824219 313.605469 72.925781 314.617188 73.125 315.617188 C 73.320312 316.617188 73.617188 317.589844 74.007812 318.53125 C 74.398438 319.476562 74.875 320.371094 75.441406 321.21875 C 76.011719 322.066406 76.652344 322.851562 77.375 323.574219 C 78.097656 324.296875 78.882812 324.9375 79.730469 325.507812 C 80.578125 326.074219 81.472656 326.550781 82.417969 326.941406 C 83.359375 327.332031 84.332031 327.628906 85.332031 327.828125 C 86.332031 328.027344 87.34375 328.125 88.363281 328.125 L 210.652344 324.863281 C 213.304688 324.792969 215.953125 324.632812 218.59375 324.371094 C 221.238281 324.109375 223.863281 323.753906 226.480469 323.300781 C 229.09375 322.847656 231.691406 322.296875 234.265625 321.65625 C 236.839844 321.011719 239.390625 320.273438 241.910156 319.445312 C 244.433594 318.613281 246.917969 317.695312 249.375 316.683594 C 251.828125 315.671875 254.242188 314.570312 256.613281 313.382812 C 258.988281 312.191406 261.3125 310.917969 263.59375 309.558594 C 265.875 308.203125 268.101562 306.761719 270.277344 305.238281 C 272.449219 303.71875 274.566406 302.117188 276.625 300.441406 C 278.679688 298.765625 280.675781 297.015625 282.605469 295.191406 C 284.535156 293.367188 286.394531 291.476562 288.183594 289.519531 C 289.976562 287.558594 291.691406 285.539062 293.335938 283.453125 C 294.980469 281.367188 296.542969 279.226562 298.03125 277.027344 C 299.515625 274.828125 300.917969 272.578125 302.242188 270.273438 C 303.5625 267.972656 304.796875 265.625 305.949219 263.234375 C 307.097656 260.839844 308.15625 258.410156 309.128906 255.941406 C 310.101562 253.46875 310.980469 250.96875 311.769531 248.433594 C 312.558594 245.898438 313.253906 243.339844 313.851562 240.753906 C 314.453125 238.167969 314.960938 235.5625 315.371094 232.941406 C 315.78125 230.320312 316.09375 227.683594 316.3125 225.039062 C 316.527344 222.394531 316.648438 219.746094 316.671875 217.089844 C 316.695312 214.4375 316.625 211.785156 316.453125 209.136719 C 316.28125 206.488281 316.015625 203.847656 315.652344 201.21875 C 315.289062 198.589844 314.828125 195.976562 314.273438 193.382812 C 313.71875 190.785156 313.070312 188.214844 312.324219 185.667969 C 311.582031 183.117188 310.746094 180.601562 309.820312 178.113281 C 308.890625 175.625 307.875 173.175781 306.765625 170.765625 C 305.660156 168.351562 304.46875 165.984375 303.1875 163.65625 C 301.90625 161.332031 300.542969 159.058594 299.097656 156.832031 C 297.648438 154.609375 296.121094 152.4375 294.515625 150.324219 C 292.910156 148.210938 291.230469 146.160156 289.472656 144.167969 C 287.71875 142.179688 285.890625 140.253906 283.996094 138.398438 Z M 284.773438 138.242188 "/></g></g></svg>