<svg xmlns="http://www.w3.org/2000/svg" xmlns:xlink="http://www.w3.org/1999/xlink" width="500" zoomAndPan="magnify" viewBox="0 0 375 375" height="500" preserveAspectRatio="xMidYMid meet" version="1.0">
    <path fill="#ffffff" d="M 232.070312 118.957031 C 228.617188 120.179688 225.246094 121.558594 221.875 122.992188 C 223.992188 122.546875 226.207031 122.214844 228.378906 121.835938 C 229.632812 120.878906 230.789062 119.945312 232.070312 118.957031 Z M 232.070312 118.957031 " fill-opacity="1" fill-rule="nonzero"/>
    <path fill="#ffffff" d="M 326.578125 48.265625 C 288.929688 51.398438 257.074219 58.792969 230.0625 69.027344 L 189.964844 116.171875 L 202.480469 81.363281 C 120.976562 123.410156 94.214844 193.363281 85.402344 233.542969 C 107.414062 197.59375 187.613281 125.109375 240.535156 121.796875 C 240.535156 121.796875 146.832031 176.710938 83.675781 262.101562 C 70.042969 280.519531 60.019531 296.921875 54.085938 308.660156 C 49.03125 318.65625 47.015625 325.355469 49.046875 326.734375 C 65.363281 307.976562 80.136719 290.351562 94.410156 273.433594 C 96.972656 270.414062 99.433594 267.488281 101.957031 264.507812 C 171.125 260.304688 240.394531 213.5625 283.375 158.304688 L 246.160156 157.257812 L 297.660156 138.042969 C 317.140625 107.59375 328.167969 75.890625 326.578125 48.265625 Z M 326.578125 48.265625 " fill-opacity="1" fill-rule="nonzero"/>
    <path fill="#ffffff" d="M 219.523438 318.238281 C 213.355469 318.03125 206.964844 318.503906 200.964844 315.230469 C 199.488281 314.339844 198.402344 312.390625 198.625 310.625 C 198.765625 308.867188 199.515625 307.421875 200.238281 306.042969 C 201.769531 303.339844 203.652344 300.960938 205.15625 298.453125 C 206.644531 296.03125 207.9375 293.039062 206.058594 291.410156 C 204.195312 289.753906 201.003906 289.140625 198.125 288.722656 C 192.121094 288 185.953125 288.109375 179.871094 288.402344 C 167.644531 289.085938 155.519531 291.101562 143.601562 293.859375 C 119.75 299.484375 96.523438 307.699219 74.316406 317.863281 L 73.859375 316.972656 C 84.0625 309.914062 95.148438 304.34375 106.367188 298.929688 C 117.785156 294 129.480469 289.53125 141.566406 285.796875 C 153.734375 282.402344 166.324219 280.144531 179.285156 279.03125 C 185.855469 278.558594 192.179688 278.222656 199.445312 278.933594 C 201.3125 279.15625 203.246094 279.433594 205.460938 280.046875 C 207.6875 280.742188 210.238281 281.441406 213.398438 284.433594 C 214.914062 285.910156 216.375 288.25 216.890625 290.671875 C 217.433594 293.09375 217.199219 295.210938 216.808594 296.796875 C 215.972656 299.957031 214.804688 301.78125 213.816406 303.425781 L 208.859375 310.636719 C 208.34375 311.417969 208.203125 312.140625 208.316406 311.277344 C 208.648438 310.332031 206.992188 307.601562 206.589844 307.726562 C 206.074219 307.644531 208.84375 308.660156 211.238281 308.855469 C 213.691406 309.203125 216.808594 309.355469 219.300781 309.425781 C 230.925781 309.453125 242.148438 308.035156 253.648438 305.191406 C 276.371094 299.09375 298.46875 288.652344 319.3125 275.96875 L 320.007812 276.71875 " fill-opacity="1" fill-rule="nonzero"/>
</svg>