<svg xmlns="http://www.w3.org/2000/svg" xmlns:xlink="http://www.w3.org/1999/xlink" width="500" zoomAndPan="magnify" viewBox="0 0 375 374.999991" height="500" preserveAspectRatio="xMidYMid meet" version="1.0"><defs><clipPath id="e1d941d913"><path d="M 46.875 46.875 L 327 46.875 L 327 327 L 46.875 327 Z M 46.875 46.875 " clip-rule="nonzero"/></clipPath></defs><g clip-path="url(#e1d941d913)"><path fill="#ffffff" d="M 227.648438 252.539062 L 296.535156 321.402344 C 303.355469 328.21875 314.429688 328.21875 321.253906 321.398438 C 328.070312 314.574219 328.066406 303.5 321.246094 296.679688 L 252.40625 227.863281 C 266.257812 209.027344 274.441406 185.765625 274.441406 160.605469 C 274.441406 97.835938 223.480469 46.875 160.710938 46.875 C 97.941406 46.875 46.980469 97.835938 46.980469 160.605469 C 46.980469 223.375 97.941406 274.335938 160.710938 274.335938 C 185.726562 274.335938 208.863281 266.246094 227.648438 252.539062 Z M 160.710938 81.832031 C 204.1875 81.832031 239.488281 117.128906 239.488281 160.605469 C 239.488281 204.082031 204.1875 239.382812 160.710938 239.382812 C 117.234375 239.382812 81.9375 204.082031 81.9375 160.605469 C 81.9375 117.128906 117.234375 81.832031 160.710938 81.832031 Z M 160.710938 81.832031 " fill-opacity="1" fill-rule="evenodd"/></g></svg>