<svg xmlns="http://www.w3.org/2000/svg" xmlns:xlink="http://www.w3.org/1999/xlink" width="500" zoomAndPan="magnify" viewBox="0 0 375 374.999991" height="500" preserveAspectRatio="xMidYMid meet" version="1.2"><defs><clipPath id="64dedba611"><path d="M 46.875 46.875 L 328.125 46.875 L 328.125 328.125 L 46.875 328.125 Z M 46.875 46.875 "/></clipPath><clipPath id="4d4005d97e"><path d="M 290 103 L 328.125 103 L 328.125 310 L 290 310 Z M 290 103 "/></clipPath></defs><g id="4502d47a9d"><g clip-rule="nonzero" clip-path="url(#64dedba611)"><path style=" stroke:none;fill-rule:nonzero;fill:#ffffff;fill-opacity:1;" d="M 323.4375 318.75 L 56.25 318.75 L 56.25 51.5625 C 56.25 51.253906 56.21875 50.949219 56.160156 50.648438 C 56.101562 50.347656 56.011719 50.054688 55.894531 49.769531 C 55.777344 49.484375 55.632812 49.214844 55.460938 48.957031 C 55.289062 48.703125 55.09375 48.464844 54.878906 48.246094 C 54.660156 48.03125 54.421875 47.835938 54.167969 47.664062 C 53.910156 47.492188 53.640625 47.347656 53.355469 47.230469 C 53.070312 47.113281 52.777344 47.023438 52.476562 46.964844 C 52.175781 46.90625 51.871094 46.875 51.5625 46.875 C 51.253906 46.875 50.949219 46.90625 50.648438 46.964844 C 50.347656 47.023438 50.054688 47.113281 49.769531 47.230469 C 49.484375 47.347656 49.214844 47.492188 48.957031 47.664062 C 48.703125 47.835938 48.464844 48.03125 48.246094 48.246094 C 48.03125 48.464844 47.835938 48.703125 47.664062 48.957031 C 47.492188 49.214844 47.347656 49.484375 47.230469 49.769531 C 47.113281 50.054688 47.023438 50.347656 46.964844 50.648438 C 46.90625 50.949219 46.875 51.253906 46.875 51.5625 L 46.875 323.4375 C 46.875 323.746094 46.90625 324.050781 46.964844 324.351562 C 47.023438 324.652344 47.113281 324.945312 47.230469 325.230469 C 47.347656 325.515625 47.492188 325.785156 47.664062 326.042969 C 47.835938 326.296875 48.03125 326.535156 48.246094 326.753906 C 48.464844 326.96875 48.703125 327.164062 48.957031 327.335938 C 49.214844 327.507812 49.484375 327.648438 49.769531 327.769531 C 50.054688 327.886719 50.347656 327.976562 50.648438 328.035156 C 50.949219 328.09375 51.253906 328.125 51.5625 328.125 L 323.4375 328.125 C 323.746094 328.125 324.050781 328.09375 324.351562 328.035156 C 324.652344 327.976562 324.945312 327.886719 325.230469 327.769531 C 325.515625 327.648438 325.785156 327.507812 326.042969 327.335938 C 326.296875 327.164062 326.535156 326.96875 326.753906 326.753906 C 326.96875 326.535156 327.164062 326.296875 327.335938 326.042969 C 327.507812 325.785156 327.648438 325.515625 327.769531 325.230469 C 327.886719 324.945312 327.976562 324.652344 328.035156 324.351562 C 328.09375 324.050781 328.125 323.746094 328.125 323.4375 C 328.125 323.128906 328.09375 322.824219 328.035156 322.523438 C 327.976562 322.222656 327.886719 321.929688 327.769531 321.644531 C 327.648438 321.359375 327.507812 321.089844 327.335938 320.832031 C 327.164062 320.578125 326.96875 320.339844 326.753906 320.121094 C 326.535156 319.90625 326.296875 319.710938 326.042969 319.539062 C 325.785156 319.367188 325.515625 319.222656 325.230469 319.105469 C 324.945312 318.988281 324.652344 318.898438 324.351562 318.839844 C 324.050781 318.78125 323.746094 318.75 323.4375 318.75 Z M 323.4375 318.75 "/></g><path style=" stroke:none;fill-rule:nonzero;fill:#ffffff;fill-opacity:1;" d="M 67.96875 239.0625 L 103.824219 239.0625 C 199.964844 239.0625 280.886719 172.195312 303.039062 82.277344 C 303.105469 82.027344 303.207031 81.796875 303.347656 81.578125 C 303.492188 81.363281 303.664062 81.175781 303.863281 81.019531 C 304.066406 80.859375 304.289062 80.738281 304.535156 80.652344 C 304.777344 80.566406 305.027344 80.523438 305.285156 80.519531 L 317.519531 80.519531 C 318 80.519531 318.441406 80.386719 318.839844 80.117188 C 319.238281 79.84375 319.523438 79.484375 319.703125 79.039062 C 319.878906 78.589844 319.914062 78.132812 319.808594 77.664062 C 319.703125 77.191406 319.476562 76.792969 319.125 76.464844 L 289.242188 48.394531 C 289.023438 48.1875 288.777344 48.03125 288.5 47.921875 C 288.222656 47.8125 287.933594 47.757812 287.636719 47.757812 C 287.339844 47.757812 287.050781 47.8125 286.773438 47.921875 C 286.496094 48.03125 286.25 48.1875 286.03125 48.394531 L 256.148438 76.464844 C 255.796875 76.792969 255.570312 77.191406 255.464844 77.664062 C 255.359375 78.132812 255.394531 78.589844 255.570312 79.039062 C 255.75 79.484375 256.035156 79.84375 256.433594 80.117188 C 256.832031 80.386719 257.273438 80.519531 257.753906 80.519531 L 267.773438 80.519531 C 267.957031 80.519531 268.136719 80.539062 268.316406 80.582031 C 268.496094 80.625 268.667969 80.6875 268.832031 80.769531 C 268.996094 80.851562 269.148438 80.949219 269.289062 81.066406 C 269.429688 81.1875 269.554688 81.316406 269.664062 81.464844 C 269.777344 81.609375 269.867188 81.769531 269.941406 81.9375 C 270.015625 82.101562 270.070312 82.277344 270.101562 82.457031 C 270.136719 82.636719 270.148438 82.820312 270.140625 83.003906 C 270.132812 83.1875 270.101562 83.367188 270.050781 83.542969 C 248.324219 157.527344 184.457031 210.234375 103.824219 210.234375 L 67.96875 210.234375 C 67.65625 210.234375 67.359375 210.292969 67.070312 210.414062 C 66.785156 210.53125 66.53125 210.699219 66.3125 210.921875 C 66.089844 211.140625 65.921875 211.394531 65.804688 211.679688 C 65.683594 211.96875 65.625 212.265625 65.625 212.578125 L 65.625 236.71875 C 65.625 237.03125 65.683594 237.328125 65.804688 237.617188 C 65.921875 237.902344 66.089844 238.15625 66.3125 238.375 C 66.53125 238.597656 66.785156 238.765625 67.070312 238.882812 C 67.359375 239.003906 67.65625 239.0625 67.96875 239.0625 Z M 67.96875 239.0625 "/><path style=" stroke:none;fill-rule:nonzero;fill:#ffffff;fill-opacity:1;" d="M 70.3125 252.144531 L 98.4375 252.144531 C 98.746094 252.144531 99.050781 252.175781 99.351562 252.238281 C 99.652344 252.296875 99.945312 252.386719 100.230469 252.503906 C 100.515625 252.621094 100.785156 252.765625 101.042969 252.9375 C 101.296875 253.109375 101.535156 253.300781 101.753906 253.519531 C 101.96875 253.738281 102.164062 253.972656 102.335938 254.230469 C 102.507812 254.484375 102.652344 254.753906 102.769531 255.039062 C 102.886719 255.324219 102.976562 255.617188 103.035156 255.917969 C 103.09375 256.222656 103.125 256.527344 103.125 256.832031 L 103.125 304.6875 C 103.125 304.996094 103.09375 305.300781 103.035156 305.601562 C 102.976562 305.902344 102.886719 306.195312 102.769531 306.480469 C 102.652344 306.765625 102.507812 307.035156 102.335938 307.292969 C 102.164062 307.546875 101.96875 307.785156 101.753906 308.003906 C 101.535156 308.21875 101.296875 308.414062 101.042969 308.585938 C 100.785156 308.757812 100.515625 308.898438 100.230469 309.019531 C 99.945312 309.136719 99.652344 309.226562 99.351562 309.285156 C 99.050781 309.34375 98.746094 309.375 98.4375 309.375 L 70.3125 309.375 C 70.003906 309.375 69.699219 309.34375 69.398438 309.285156 C 69.097656 309.226562 68.804688 309.136719 68.519531 309.019531 C 68.234375 308.898438 67.964844 308.757812 67.707031 308.585938 C 67.453125 308.414062 67.214844 308.21875 66.996094 308.003906 C 66.78125 307.785156 66.585938 307.546875 66.414062 307.292969 C 66.242188 307.035156 66.097656 306.765625 65.980469 306.480469 C 65.863281 306.195312 65.773438 305.902344 65.714844 305.601562 C 65.65625 305.300781 65.625 304.996094 65.625 304.6875 L 65.625 256.832031 C 65.625 256.527344 65.65625 256.222656 65.714844 255.917969 C 65.773438 255.617188 65.863281 255.324219 65.980469 255.039062 C 66.097656 254.753906 66.242188 254.484375 66.414062 254.230469 C 66.585938 253.972656 66.78125 253.738281 66.996094 253.519531 C 67.214844 253.300781 67.453125 253.109375 67.707031 252.9375 C 67.964844 252.765625 68.234375 252.621094 68.519531 252.503906 C 68.804688 252.386719 69.097656 252.296875 69.398438 252.238281 C 69.699219 252.175781 70.003906 252.144531 70.3125 252.144531 Z M 70.3125 252.144531 "/><path style=" stroke:none;fill-rule:nonzero;fill:#ffffff;fill-opacity:1;" d="M 126.175781 251.460938 C 125.589844 251.507812 125.03125 251.664062 124.5 251.921875 C 123.972656 252.183594 123.507812 252.527344 123.109375 252.964844 C 122.710938 253.398438 122.402344 253.890625 122.191406 254.441406 C 121.976562 254.988281 121.871094 255.558594 121.875 256.148438 L 121.875 304.6875 C 121.875 304.996094 121.90625 305.300781 121.964844 305.601562 C 122.023438 305.902344 122.113281 306.195312 122.230469 306.480469 C 122.347656 306.765625 122.492188 307.035156 122.664062 307.292969 C 122.835938 307.546875 123.03125 307.785156 123.246094 308.003906 C 123.464844 308.21875 123.703125 308.414062 123.957031 308.585938 C 124.214844 308.757812 124.484375 308.898438 124.769531 309.019531 C 125.054688 309.136719 125.347656 309.226562 125.648438 309.285156 C 125.949219 309.34375 126.253906 309.375 126.5625 309.375 L 154.6875 309.375 C 154.996094 309.375 155.300781 309.34375 155.601562 309.285156 C 155.902344 309.226562 156.195312 309.136719 156.480469 309.019531 C 156.765625 308.898438 157.035156 308.757812 157.292969 308.585938 C 157.546875 308.414062 157.785156 308.21875 158.003906 308.003906 C 158.21875 307.785156 158.414062 307.546875 158.585938 307.292969 C 158.757812 307.035156 158.898438 306.765625 159.019531 306.480469 C 159.136719 306.195312 159.226562 305.902344 159.285156 305.601562 C 159.34375 305.300781 159.375 304.996094 159.375 304.6875 L 159.375 251.953125 C 159.371094 251.605469 159.332031 251.257812 159.25 250.917969 C 159.171875 250.578125 159.054688 250.25 158.902344 249.9375 C 158.75 249.621094 158.566406 249.328125 158.347656 249.054688 C 158.132812 248.78125 157.886719 248.535156 157.613281 248.316406 C 157.34375 248.097656 157.050781 247.910156 156.734375 247.753906 C 156.421875 247.601562 156.097656 247.484375 155.757812 247.402344 C 155.417969 247.320312 155.070312 247.277344 154.722656 247.273438 C 154.375 247.265625 154.027344 247.300781 153.683594 247.371094 C 144.605469 249.335938 135.433594 250.699219 126.175781 251.460938 Z M 126.175781 251.460938 "/><path style=" stroke:none;fill-rule:nonzero;fill:#ffffff;fill-opacity:1;" d="M 208.757812 227.472656 C 199.882812 232.152344 190.71875 236.160156 181.261719 239.5 C 180.800781 239.664062 180.378906 239.890625 179.992188 240.183594 C 179.601562 240.472656 179.269531 240.820312 178.988281 241.214844 C 178.707031 241.609375 178.492188 242.039062 178.347656 242.503906 C 178.199219 242.964844 178.125 243.441406 178.125 243.925781 L 178.125 304.6875 C 178.125 304.996094 178.15625 305.300781 178.214844 305.601562 C 178.273438 305.902344 178.363281 306.195312 178.480469 306.480469 C 178.597656 306.765625 178.742188 307.035156 178.914062 307.292969 C 179.085938 307.546875 179.28125 307.785156 179.496094 308.003906 C 179.714844 308.21875 179.953125 308.414062 180.207031 308.585938 C 180.464844 308.757812 180.734375 308.898438 181.019531 309.019531 C 181.304688 309.136719 181.597656 309.226562 181.898438 309.285156 C 182.199219 309.34375 182.503906 309.375 182.8125 309.375 L 210.9375 309.375 C 211.246094 309.375 211.550781 309.34375 211.851562 309.285156 C 212.152344 309.226562 212.445312 309.136719 212.730469 309.019531 C 213.015625 308.898438 213.285156 308.757812 213.542969 308.585938 C 213.796875 308.414062 214.035156 308.21875 214.253906 308.003906 C 214.46875 307.785156 214.664062 307.546875 214.835938 307.292969 C 215.007812 307.035156 215.148438 306.765625 215.269531 306.480469 C 215.386719 306.195312 215.476562 305.902344 215.535156 305.601562 C 215.59375 305.300781 215.625 304.996094 215.625 304.6875 L 215.625 231.621094 C 215.730469 228.203125 211.734375 225.796875 208.757812 227.472656 Z M 208.757812 227.472656 "/><path style=" stroke:none;fill-rule:nonzero;fill:#ffffff;fill-opacity:1;" d="M 263.792969 186.121094 C 255.328125 194.976562 246.160156 203.03125 236.285156 210.28125 C 235.683594 210.722656 235.214844 211.277344 234.878906 211.941406 C 234.542969 212.605469 234.375 213.308594 234.375 214.054688 L 234.375 304.6875 C 234.375 304.996094 234.40625 305.300781 234.464844 305.601562 C 234.523438 305.902344 234.613281 306.195312 234.730469 306.480469 C 234.847656 306.765625 234.992188 307.035156 235.164062 307.292969 C 235.335938 307.546875 235.53125 307.785156 235.746094 308.003906 C 235.964844 308.21875 236.203125 308.414062 236.457031 308.585938 C 236.714844 308.757812 236.984375 308.898438 237.269531 309.019531 C 237.554688 309.136719 237.847656 309.226562 238.148438 309.285156 C 238.449219 309.34375 238.753906 309.375 239.0625 309.375 L 267.1875 309.375 C 267.496094 309.375 267.800781 309.34375 268.101562 309.285156 C 268.402344 309.226562 268.695312 309.136719 268.980469 309.019531 C 269.265625 308.898438 269.535156 308.757812 269.792969 308.585938 C 270.046875 308.414062 270.285156 308.21875 270.503906 308.003906 C 270.71875 307.785156 270.914062 307.546875 271.085938 307.292969 C 271.257812 307.035156 271.398438 306.765625 271.519531 306.480469 C 271.636719 306.195312 271.726562 305.902344 271.785156 305.601562 C 271.84375 305.300781 271.875 304.996094 271.875 304.6875 L 271.875 189.355469 C 272.015625 185.25 266.53125 183.0625 263.792969 186.121094 Z M 263.792969 186.121094 "/><g clip-rule="nonzero" clip-path="url(#4d4005d97e)"><path style=" stroke:none;fill-rule:nonzero;fill:#ffffff;fill-opacity:1;" d="M 323.4375 103.125 L 318.164062 103.125 C 317.667969 103.125 317.183594 103.203125 316.710938 103.355469 C 316.238281 103.507812 315.800781 103.734375 315.402344 104.027344 C 315 104.320312 314.652344 104.667969 314.363281 105.070312 C 314.070312 105.472656 313.851562 105.910156 313.699219 106.382812 C 308.320312 123.265625 300.882812 139.183594 291.378906 154.136719 C 290.890625 154.90625 290.648438 155.746094 290.648438 156.65625 L 290.648438 304.6875 C 290.648438 304.996094 290.679688 305.300781 290.738281 305.601562 C 290.796875 305.902344 290.886719 306.195312 291.003906 306.480469 C 291.121094 306.765625 291.265625 307.035156 291.4375 307.292969 C 291.609375 307.546875 291.804688 307.785156 292.019531 308.003906 C 292.238281 308.21875 292.476562 308.414062 292.730469 308.585938 C 292.988281 308.757812 293.257812 308.898438 293.542969 309.019531 C 293.828125 309.136719 294.121094 309.226562 294.421875 309.285156 C 294.722656 309.34375 295.027344 309.375 295.335938 309.375 L 323.460938 309.375 C 323.769531 309.375 324.074219 309.34375 324.375 309.285156 C 324.675781 309.226562 324.96875 309.136719 325.253906 309.019531 C 325.539062 308.898438 325.808594 308.757812 326.066406 308.585938 C 326.320312 308.414062 326.558594 308.21875 326.777344 308.003906 C 326.992188 307.785156 327.1875 307.546875 327.359375 307.292969 C 327.53125 307.035156 327.671875 306.765625 327.792969 306.480469 C 327.910156 306.195312 328 305.902344 328.058594 305.601562 C 328.117188 305.300781 328.148438 304.996094 328.148438 304.6875 L 328.148438 107.8125 C 328.148438 107.503906 328.117188 107.199219 328.058594 106.894531 C 327.996094 106.59375 327.90625 106.296875 327.789062 106.011719 C 327.671875 105.726562 327.527344 105.457031 327.355469 105.199219 C 327.179688 104.945312 326.984375 104.707031 326.765625 104.488281 C 326.546875 104.273438 326.308594 104.078125 326.054688 103.90625 C 325.796875 103.734375 325.523438 103.59375 325.238281 103.476562 C 324.953125 103.359375 324.660156 103.269531 324.355469 103.210938 C 324.050781 103.152344 323.746094 103.125 323.4375 103.125 Z M 323.4375 103.125 "/></g></g></svg>