<svg xmlns="http://www.w3.org/2000/svg" xmlns:xlink="http://www.w3.org/1999/xlink" width="500" zoomAndPan="magnify" viewBox="0 0 375 374.999991" height="500" preserveAspectRatio="xMidYMid meet" version="1.2"><defs><clipPath id="15a8a99f38"><path d="M 143 108 L 328.125 108 L 328.125 278 L 143 278 Z M 143 108 "/></clipPath><clipPath id="cb251cc1be"><path d="M 46.875 268 L 60 268 L 60 278 L 46.875 278 Z M 46.875 268 "/></clipPath><clipPath id="d66ce6bd70"><path d="M 66 235 L 159 235 L 159 328.125 L 66 328.125 Z M 66 235 "/></clipPath><clipPath id="ae124b0722"><path d="M 95 46.875 L 302 46.875 L 302 151 L 95 151 Z M 95 46.875 "/></clipPath></defs><g id="5c6f967741"><g clip-rule="nonzero" clip-path="url(#15a8a99f38)"><path style=" stroke:none;fill-rule:nonzero;fill:#ffffff;fill-opacity:1;" d="M 323.730469 268.796875 L 306.152344 268.796875 L 306.152344 117.1875 C 306.152344 112.351562 302.195312 108.398438 297.363281 108.398438 L 275.390625 108.398438 C 270.554688 108.398438 266.601562 112.351562 266.601562 117.1875 L 266.601562 130.371094 L 244.628906 130.371094 C 239.792969 130.371094 235.839844 134.324219 235.839844 139.160156 L 235.839844 158.933594 L 213.867188 158.933594 C 209.03125 158.933594 205.078125 162.890625 205.078125 167.722656 L 205.078125 185.300781 L 183.105469 185.300781 C 178.269531 185.300781 174.316406 189.257812 174.316406 194.089844 L 174.316406 216.0625 L 152.34375 216.0625 C 147.507812 216.0625 143.554688 220.019531 143.554688 224.851562 L 143.554688 236.5 C 146.851562 238.695312 149.707031 241.113281 152.34375 243.96875 L 152.34375 224.851562 L 174.316406 224.851562 L 174.316406 268.796875 L 166.1875 268.796875 C 166.84375 271.65625 167.285156 274.511719 167.503906 277.585938 L 323.730469 277.585938 C 326.148438 277.585938 328.125 275.609375 328.125 273.191406 C 328.125 270.777344 326.148438 268.796875 323.730469 268.796875 Z M 183.105469 220.457031 L 183.105469 194.089844 L 205.078125 194.089844 L 205.078125 268.796875 L 183.105469 268.796875 Z M 213.867188 194.089844 L 213.867188 167.722656 L 235.839844 167.722656 L 235.839844 268.796875 L 213.867188 268.796875 Z M 244.628906 167.722656 L 244.628906 139.160156 L 266.601562 139.160156 L 266.601562 268.796875 L 244.628906 268.796875 Z M 275.390625 268.796875 L 275.390625 117.1875 L 297.363281 117.1875 L 297.363281 268.796875 Z M 275.390625 268.796875 "/></g><g clip-rule="nonzero" clip-path="url(#cb251cc1be)"><path style=" stroke:none;fill-rule:nonzero;fill:#ffffff;fill-opacity:1;" d="M 59.398438 268.796875 L 51.269531 268.796875 C 48.851562 268.796875 46.875 270.777344 46.875 273.191406 C 46.875 275.609375 48.851562 277.585938 51.269531 277.585938 L 58.082031 277.585938 C 58.300781 274.511719 58.742188 271.65625 59.398438 268.796875 Z M 59.398438 268.796875 "/></g><g clip-rule="nonzero" clip-path="url(#d66ce6bd70)"><path style=" stroke:none;fill-rule:nonzero;fill:#ffffff;fill-opacity:1;" d="M 66.652344 281.980469 C 66.652344 307.46875 87.304688 328.125 112.792969 328.125 C 138.28125 328.125 158.933594 307.46875 158.933594 281.980469 C 158.933594 256.492188 138.28125 235.839844 112.792969 235.839844 C 87.304688 235.839844 66.652344 256.492188 66.652344 281.980469 Z M 108.398438 244.847656 L 108.398438 249.023438 C 108.398438 251.441406 110.375 253.417969 112.792969 253.417969 C 115.210938 253.417969 117.1875 251.441406 117.1875 249.023438 L 117.1875 244.847656 C 134.324219 246.824219 147.949219 260.449219 149.925781 277.585938 L 145.75 277.585938 C 143.335938 277.585938 141.355469 279.566406 141.355469 281.980469 C 141.355469 284.398438 143.335938 286.375 145.75 286.375 L 149.925781 286.375 C 147.949219 303.515625 134.328125 317.136719 117.1875 319.117188 L 117.1875 314.941406 C 117.1875 312.523438 115.210938 310.546875 112.792969 310.546875 C 110.375 310.546875 108.398438 312.523438 108.398438 314.941406 L 108.398438 319.117188 C 91.261719 317.136719 77.636719 303.515625 75.660156 286.375 L 79.832031 286.375 C 82.25 286.375 84.226562 284.398438 84.226562 281.980469 C 84.226562 279.566406 82.25 277.585938 79.832031 277.585938 L 75.660156 277.585938 C 77.636719 260.449219 91.261719 246.824219 108.398438 244.847656 Z M 108.398438 244.847656 "/></g><path style=" stroke:none;fill-rule:nonzero;fill:#ffffff;fill-opacity:1;" d="M 112.792969 284.179688 L 121.582031 284.179688 C 124 284.179688 125.976562 282.203125 125.976562 279.785156 C 125.976562 277.367188 124 275.390625 121.582031 275.390625 L 117.1875 275.390625 L 117.1875 262.207031 C 117.1875 259.789062 115.210938 257.8125 112.792969 257.8125 C 110.375 257.8125 108.398438 259.789062 108.398438 262.207031 L 108.398438 279.785156 C 108.398438 282.203125 110.375 284.179688 112.792969 284.179688 Z M 112.792969 284.179688 "/><g clip-rule="nonzero" clip-path="url(#ae124b0722)"><path style=" stroke:none;fill-rule:nonzero;fill:#ffffff;fill-opacity:1;" d="M 121.582031 123.777344 C 114.988281 123.777344 109.714844 128.613281 108.617188 134.765625 C 105.761719 134.765625 102.90625 134.765625 99.828125 134.546875 C 97.410156 134.324219 95.433594 136.304688 95.214844 138.71875 C 94.996094 141.136719 96.972656 143.113281 99.390625 143.335938 C 102.90625 143.554688 106.199219 143.554688 109.496094 143.554688 C 109.714844 143.554688 109.9375 143.554688 110.15625 143.554688 C 112.351562 147.507812 116.746094 150.144531 121.582031 150.144531 C 127.074219 150.144531 131.910156 146.628906 133.886719 141.796875 C 157.175781 138.0625 172.996094 128.832031 185.742188 117.625 C 187.5 118.503906 189.695312 119.164062 191.894531 119.164062 C 199.144531 119.164062 205.078125 113.230469 205.078125 105.980469 C 205.078125 103.785156 204.636719 101.804688 203.539062 100.046875 C 203.980469 99.609375 204.417969 99.167969 204.859375 98.730469 C 216.503906 86.425781 227.488281 74.558594 244.1875 66.429688 C 246.386719 70.386719 250.78125 73.242188 255.613281 73.242188 C 262.867188 73.242188 268.796875 67.308594 268.796875 60.058594 C 268.796875 59.398438 268.796875 58.738281 268.578125 58.300781 C 276.929688 56.542969 286.375 55.664062 297.363281 55.664062 C 299.78125 55.664062 301.757812 53.6875 301.757812 51.269531 C 301.757812 48.851562 299.78125 46.875 297.363281 46.875 C 284.839844 46.875 273.851562 48.191406 264.402344 50.171875 C 261.988281 48.191406 258.910156 46.875 255.613281 46.875 C 249.242188 46.875 243.96875 51.488281 242.652344 57.421875 C 223.316406 66.210938 210.789062 79.613281 198.484375 92.796875 C 198.046875 93.238281 197.605469 93.675781 197.386719 94.117188 C 195.628906 93.457031 193.871094 93.015625 191.894531 93.015625 C 184.644531 93.015625 178.710938 98.949219 178.710938 106.199219 C 178.710938 107.957031 179.148438 109.714844 179.808594 111.472656 C 168.164062 121.363281 154.320312 129.492188 134.105469 133.007812 C 132.347656 127.515625 127.292969 123.777344 121.582031 123.777344 Z M 255.613281 55.664062 C 258.03125 55.664062 260.007812 57.640625 260.007812 60.058594 C 260.007812 62.476562 258.03125 64.453125 255.613281 64.453125 C 253.199219 64.453125 251.21875 62.476562 251.21875 60.058594 C 251.21875 57.640625 253.199219 55.664062 255.613281 55.664062 Z M 121.582031 141.355469 C 119.164062 141.355469 117.1875 139.378906 117.1875 136.960938 C 117.1875 134.546875 119.164062 132.566406 121.582031 132.566406 C 124 132.566406 125.976562 134.546875 125.976562 136.960938 C 125.976562 139.378906 124 141.355469 121.582031 141.355469 Z M 191.894531 101.585938 C 194.3125 101.585938 196.289062 103.5625 196.289062 105.980469 C 196.289062 108.398438 194.3125 110.375 191.894531 110.375 C 189.476562 110.375 187.5 108.398438 187.5 105.980469 C 187.5 103.5625 189.476562 101.585938 191.894531 101.585938 Z M 191.894531 101.585938 "/></g></g></svg>