<svg xmlns="http://www.w3.org/2000/svg" xmlns:xlink="http://www.w3.org/1999/xlink" width="500" zoomAndPan="magnify" viewBox="0 0 375 374.999991" height="500" preserveAspectRatio="xMidYMid meet" version="1.0"><defs><clipPath id="8bd2a4832e"><path d="M 47 47 L 328.125 47 L 328.125 328.125 L 47 328.125 Z M 47 47 " clip-rule="nonzero"/></clipPath></defs><g clip-path="url(#8bd2a4832e)"><path fill="#ffffff" d="M 201.261719 47.890625 C 192.226562 47.011719 183.125 47.011719 174.089844 47.890625 L 168.074219 69.921875 C 160.464844 71.1875 152.992188 73.1875 145.769531 75.894531 L 129.542969 59.824219 C 121.28125 63.582031 113.40625 68.132812 106.015625 73.410156 L 111.824219 95.492188 C 105.859375 100.398438 100.398438 105.863281 95.492188 111.824219 L 73.410156 106.019531 C 68.128906 113.40625 63.578125 121.285156 59.824219 129.542969 L 75.890625 145.773438 C 73.183594 152.996094 71.183594 160.464844 69.917969 168.078125 L 47.886719 174.089844 C 47.011719 183.125 47.011719 192.230469 47.886719 201.265625 L 69.917969 207.277344 C 71.183594 214.890625 73.183594 222.359375 75.890625 229.582031 L 59.824219 245.8125 C 63.578125 254.070312 68.128906 261.949219 73.410156 269.335938 L 95.492188 263.53125 C 100.398438 269.492188 105.859375 274.957031 111.824219 279.863281 L 106.015625 301.945312 C 113.40625 307.222656 121.28125 311.777344 129.542969 315.53125 L 145.769531 299.460938 C 152.992188 302.167969 160.464844 304.167969 168.074219 305.433594 L 174.089844 327.464844 C 183.125 328.34375 192.226562 328.34375 201.261719 327.464844 L 207.273438 305.433594 C 214.886719 304.167969 222.355469 302.167969 229.582031 299.460938 L 245.808594 315.53125 C 254.070312 311.777344 261.945312 307.222656 269.335938 301.945312 L 263.527344 279.863281 C 269.488281 274.957031 274.953125 269.492188 279.859375 263.53125 L 301.941406 269.335938 C 307.222656 261.949219 311.773438 254.070312 315.527344 245.8125 L 299.460938 229.582031 C 302.164062 222.359375 304.164062 214.890625 305.433594 207.277344 L 327.464844 201.265625 C 328.339844 192.230469 328.339844 183.125 327.464844 174.089844 L 305.433594 168.078125 C 304.164062 160.464844 302.164062 152.996094 299.460938 145.773438 L 315.527344 129.542969 C 311.773438 121.285156 307.222656 113.40625 301.941406 106.019531 L 279.859375 111.824219 C 274.953125 105.863281 269.488281 100.398438 263.527344 95.492188 L 269.335938 73.410156 C 261.945312 68.132812 254.070312 63.582031 245.808594 59.824219 L 229.582031 75.894531 C 222.355469 73.1875 214.886719 71.1875 207.273438 69.921875 Z M 187.675781 112.914062 C 228.9375 112.914062 262.4375 146.414062 262.4375 187.679688 C 262.4375 228.941406 228.9375 262.441406 187.675781 262.441406 C 146.414062 262.441406 112.910156 228.941406 112.910156 187.679688 C 112.910156 146.414062 146.414062 112.914062 187.675781 112.914062 Z M 187.675781 112.914062 " fill-opacity="1" fill-rule="evenodd"/></g></svg>