<svg xmlns="http://www.w3.org/2000/svg" xmlns:xlink="http://www.w3.org/1999/xlink" width="500" zoomAndPan="magnify" viewBox="0 0 375 374.999991" height="500" preserveAspectRatio="xMidYMid meet" version="1.0"><defs><clipPath id="2ba8842931"><path d="M 46.875 46.875 L 328.125 46.875 L 328.125 328.125 L 46.875 328.125 Z M 46.875 46.875 " clip-rule="nonzero"/></clipPath></defs><g clip-path="url(#2ba8842931)"><path fill="#ffffff" d="M 323.566406 328.105469 L 51.453125 328.105469 C 48.992188 328.105469 46.992188 326.109375 46.992188 323.644531 L 46.992188 298.222656 C 46.992188 255.933594 81.402344 221.527344 123.691406 221.527344 L 251.328125 221.527344 C 293.621094 221.527344 328.027344 255.933594 328.027344 298.222656 L 328.027344 323.644531 C 328.027344 326.109375 326.03125 328.105469 323.566406 328.105469 Z M 187.511719 209.53125 C 142.667969 209.53125 106.183594 173.046875 106.183594 128.203125 C 106.183594 83.359375 142.667969 46.875 187.511719 46.875 C 232.355469 46.875 268.839844 83.359375 268.839844 128.203125 C 268.839844 173.046875 232.355469 209.53125 187.511719 209.53125 Z M 187.511719 209.53125 " fill-opacity="1" fill-rule="nonzero"/></g></svg>