<svg xmlns="http://www.w3.org/2000/svg" xmlns:xlink="http://www.w3.org/1999/xlink" width="500" zoomAndPan="magnify" viewBox="0 0 375 374.999991" height="500" preserveAspectRatio="xMidYMid meet" version="1.2"><defs><clipPath id="787156bb5a"><path d="M 46.875 187 L 244 187 L 244 328.125 L 46.875 328.125 Z M 46.875 187 "/></clipPath><clipPath id="988eef0e83"><path d="M 215 103 L 328.125 103 L 328.125 216 L 215 216 Z M 215 103 "/></clipPath><clipPath id="c643d13f15"><path d="M 89 46.875 L 202 46.875 L 202 174 L 89 174 Z M 89 46.875 "/></clipPath></defs><g id="06ce4c441b"><g clip-rule="nonzero" clip-path="url(#787156bb5a)"><path style=" stroke:none;fill-rule:nonzero;fill:#ffffff;fill-opacity:1;" d="M 145.3125 187.5 C 143.703125 187.5 142.09375 187.542969 140.484375 187.625 C 138.875 187.703125 137.269531 187.824219 135.667969 187.984375 C 134.066406 188.144531 132.46875 188.34375 130.875 188.578125 C 129.28125 188.816406 127.695312 189.09375 126.117188 189.410156 C 124.535156 189.726562 122.964844 190.078125 121.402344 190.472656 C 119.84375 190.863281 118.289062 191.296875 116.75 191.765625 C 115.210938 192.234375 113.679688 192.738281 112.164062 193.28125 C 110.648438 193.824219 109.148438 194.40625 107.660156 195.023438 C 106.171875 195.640625 104.699219 196.292969 103.246094 196.984375 C 101.789062 197.671875 100.351562 198.398438 98.929688 199.15625 C 97.511719 199.917969 96.109375 200.710938 94.730469 201.539062 C 93.347656 202.367188 91.988281 203.230469 90.648438 204.125 C 89.3125 205.019531 87.996094 205.945312 86.703125 206.90625 C 85.410156 207.867188 84.140625 208.855469 82.894531 209.878906 C 81.648438 210.902344 80.429688 211.953125 79.238281 213.035156 C 78.042969 214.117188 76.878906 215.226562 75.738281 216.363281 C 74.601562 217.503906 73.492188 218.667969 72.410156 219.863281 C 71.328125 221.054688 70.277344 222.273438 69.253906 223.519531 C 68.230469 224.765625 67.242188 226.035156 66.28125 227.328125 C 65.320312 228.621094 64.394531 229.9375 63.5 231.273438 C 62.605469 232.613281 61.742188 233.972656 60.914062 235.355469 C 60.085938 236.734375 59.292969 238.136719 58.53125 239.554688 C 57.773438 240.976562 57.046875 242.414062 56.359375 243.871094 C 55.667969 245.324219 55.015625 246.796875 54.398438 248.285156 C 53.78125 249.773438 53.199219 251.273438 52.65625 252.789062 C 52.113281 254.304688 51.609375 255.835938 51.140625 257.375 C 50.671875 258.914062 50.238281 260.46875 49.847656 262.027344 C 49.453125 263.589844 49.101562 265.160156 48.785156 266.742188 C 48.46875 268.320312 48.191406 269.90625 47.953125 271.5 C 47.71875 273.09375 47.519531 274.691406 47.359375 276.292969 C 47.199219 277.894531 47.078125 279.5 47 281.109375 C 46.917969 282.71875 46.875 284.328125 46.875 285.9375 L 46.875 314.0625 C 46.875 314.984375 46.964844 315.898438 47.144531 316.804688 C 47.324219 317.710938 47.59375 318.589844 47.945312 319.445312 C 48.296875 320.296875 48.730469 321.105469 49.246094 321.875 C 49.757812 322.644531 50.339844 323.351562 50.992188 324.007812 C 51.648438 324.660156 52.355469 325.242188 53.125 325.753906 C 53.890625 326.269531 54.703125 326.699219 55.554688 327.054688 C 56.410156 327.40625 57.289062 327.675781 58.195312 327.855469 C 59.101562 328.035156 60.015625 328.125 60.9375 328.125 L 229.6875 328.125 C 230.609375 328.125 231.523438 328.035156 232.429688 327.855469 C 233.335938 327.675781 234.214844 327.40625 235.070312 327.054688 C 235.921875 326.699219 236.734375 326.269531 237.5 325.753906 C 238.269531 325.242188 238.976562 324.660156 239.632812 324.007812 C 240.285156 323.351562 240.867188 322.644531 241.378906 321.875 C 241.894531 321.105469 242.324219 320.296875 242.679688 319.445312 C 243.03125 318.589844 243.300781 317.710938 243.480469 316.804688 C 243.660156 315.898438 243.75 314.984375 243.75 314.0625 L 243.75 285.9375 C 243.75 284.328125 243.707031 282.71875 243.625 281.109375 C 243.546875 279.5 243.425781 277.894531 243.265625 276.292969 C 243.105469 274.691406 242.90625 273.09375 242.671875 271.5 C 242.433594 269.90625 242.15625 268.320312 241.839844 266.742188 C 241.523438 265.160156 241.171875 263.589844 240.777344 262.027344 C 240.386719 260.46875 239.953125 258.914062 239.484375 257.375 C 239.015625 255.835938 238.511719 254.304688 237.96875 252.789062 C 237.425781 251.273438 236.84375 249.773438 236.226562 248.285156 C 235.609375 246.796875 234.957031 245.324219 234.265625 243.871094 C 233.578125 242.414062 232.851562 240.976562 232.09375 239.554688 C 231.332031 238.136719 230.539062 236.734375 229.710938 235.355469 C 228.882812 233.972656 228.019531 232.613281 227.125 231.273438 C 226.230469 229.9375 225.304688 228.621094 224.34375 227.328125 C 223.382812 226.035156 222.394531 224.765625 221.371094 223.519531 C 220.347656 222.273438 219.296875 221.054688 218.214844 219.863281 C 217.132812 218.667969 216.023438 217.503906 214.886719 216.363281 C 213.746094 215.226562 212.582031 214.117188 211.386719 213.035156 C 210.195312 211.953125 208.976562 210.902344 207.730469 209.878906 C 206.484375 208.855469 205.214844 207.867188 203.921875 206.90625 C 202.628906 205.945312 201.3125 205.019531 199.976562 204.125 C 198.636719 203.230469 197.277344 202.367188 195.894531 201.539062 C 194.515625 200.710938 193.113281 199.917969 191.695312 199.15625 C 190.273438 198.398438 188.835938 197.671875 187.378906 196.984375 C 185.925781 196.292969 184.453125 195.640625 182.964844 195.023438 C 181.476562 194.40625 179.976562 193.824219 178.460938 193.28125 C 176.945312 192.738281 175.414062 192.234375 173.875 191.765625 C 172.335938 191.296875 170.78125 190.863281 169.222656 190.472656 C 167.660156 190.078125 166.089844 189.726562 164.507812 189.410156 C 162.929688 189.09375 161.34375 188.816406 159.75 188.578125 C 158.15625 188.34375 156.558594 188.144531 154.957031 187.984375 C 153.355469 187.824219 151.75 187.703125 150.140625 187.625 C 148.53125 187.542969 146.921875 187.5 145.3125 187.5 Z M 145.3125 187.5 "/></g><g clip-rule="nonzero" clip-path="url(#988eef0e83)"><path style=" stroke:none;fill-rule:nonzero;fill:#ffffff;fill-opacity:1;" d="M 314.0625 145.3125 L 285.9375 145.3125 L 285.9375 117.1875 C 285.9375 116.265625 285.847656 115.351562 285.667969 114.445312 C 285.488281 113.539062 285.21875 112.660156 284.867188 111.804688 C 284.511719 110.953125 284.082031 110.140625 283.566406 109.375 C 283.054688 108.605469 282.472656 107.898438 281.820312 107.242188 C 281.164062 106.589844 280.457031 106.007812 279.6875 105.496094 C 278.917969 104.980469 278.109375 104.546875 277.257812 104.195312 C 276.402344 103.84375 275.523438 103.574219 274.617188 103.394531 C 273.710938 103.214844 272.796875 103.125 271.875 103.125 C 270.953125 103.125 270.039062 103.214844 269.132812 103.394531 C 268.226562 103.574219 267.347656 103.84375 266.492188 104.195312 C 265.640625 104.546875 264.828125 104.980469 264.0625 105.496094 C 263.292969 106.007812 262.585938 106.589844 261.929688 107.242188 C 261.277344 107.898438 260.695312 108.605469 260.183594 109.375 C 259.667969 110.140625 259.234375 110.953125 258.882812 111.804688 C 258.53125 112.660156 258.261719 113.539062 258.082031 114.445312 C 257.902344 115.351562 257.8125 116.265625 257.8125 117.1875 L 257.8125 145.3125 L 229.6875 145.3125 C 228.765625 145.3125 227.851562 145.402344 226.945312 145.582031 C 226.039062 145.761719 225.160156 146.03125 224.304688 146.382812 C 223.453125 146.734375 222.640625 147.167969 221.875 147.683594 C 221.105469 148.195312 220.398438 148.777344 219.742188 149.429688 C 219.089844 150.085938 218.507812 150.792969 217.996094 151.5625 C 217.480469 152.328125 217.046875 153.140625 216.695312 153.992188 C 216.34375 154.847656 216.074219 155.726562 215.894531 156.632812 C 215.714844 157.539062 215.625 158.453125 215.625 159.375 C 215.625 160.296875 215.714844 161.210938 215.894531 162.117188 C 216.074219 163.023438 216.34375 163.902344 216.695312 164.757812 C 217.046875 165.609375 217.480469 166.421875 217.996094 167.1875 C 218.507812 167.957031 219.089844 168.664062 219.742188 169.320312 C 220.398438 169.972656 221.105469 170.554688 221.875 171.066406 C 222.640625 171.582031 223.453125 172.015625 224.304688 172.367188 C 225.160156 172.71875 226.039062 172.988281 226.945312 173.167969 C 227.851562 173.347656 228.765625 173.4375 229.6875 173.4375 L 257.8125 173.4375 L 257.8125 201.5625 C 257.8125 202.484375 257.902344 203.398438 258.082031 204.304688 C 258.261719 205.210938 258.53125 206.089844 258.882812 206.945312 C 259.234375 207.796875 259.667969 208.605469 260.183594 209.375 C 260.695312 210.144531 261.277344 210.851562 261.929688 211.507812 C 262.585938 212.160156 263.292969 212.742188 264.0625 213.253906 C 264.828125 213.769531 265.640625 214.199219 266.492188 214.554688 C 267.347656 214.90625 268.226562 215.175781 269.132812 215.355469 C 270.039062 215.535156 270.953125 215.625 271.875 215.625 C 272.796875 215.625 273.710938 215.535156 274.617188 215.355469 C 275.523438 215.175781 276.402344 214.90625 277.257812 214.554688 C 278.109375 214.199219 278.917969 213.769531 279.6875 213.253906 C 280.457031 212.742188 281.164062 212.160156 281.820312 211.507812 C 282.472656 210.851562 283.054688 210.144531 283.566406 209.375 C 284.082031 208.609375 284.511719 207.796875 284.867188 206.945312 C 285.21875 206.089844 285.488281 205.210938 285.667969 204.304688 C 285.847656 203.398438 285.9375 202.484375 285.9375 201.5625 L 285.9375 173.4375 L 314.0625 173.4375 C 314.984375 173.4375 315.898438 173.347656 316.804688 173.167969 C 317.710938 172.988281 318.589844 172.71875 319.445312 172.367188 C 320.296875 172.015625 321.105469 171.582031 321.875 171.066406 C 322.644531 170.554688 323.351562 169.972656 324.007812 169.320312 C 324.660156 168.664062 325.242188 167.957031 325.753906 167.1875 C 326.269531 166.421875 326.699219 165.609375 327.054688 164.757812 C 327.40625 163.902344 327.675781 163.023438 327.855469 162.117188 C 328.035156 161.210938 328.125 160.296875 328.125 159.375 C 328.125 158.453125 328.035156 157.539062 327.855469 156.632812 C 327.675781 155.726562 327.40625 154.847656 327.054688 153.992188 C 326.699219 153.140625 326.269531 152.328125 325.753906 151.5625 C 325.242188 150.792969 324.660156 150.085938 324.007812 149.429688 C 323.351562 148.777344 322.644531 148.195312 321.875 147.683594 C 321.105469 147.167969 320.296875 146.734375 319.445312 146.382812 C 318.589844 146.03125 317.710938 145.761719 316.804688 145.582031 C 315.898438 145.402344 314.984375 145.3125 314.0625 145.3125 Z M 314.0625 145.3125 "/></g><g clip-rule="nonzero" clip-path="url(#c643d13f15)"><path style=" stroke:none;fill-rule:nonzero;fill:#ffffff;fill-opacity:1;" d="M 145.3125 173.4375 C 147.15625 173.4375 148.992188 173.347656 150.824219 173.167969 C 152.660156 172.984375 154.480469 172.714844 156.285156 172.355469 C 158.09375 171.996094 159.878906 171.550781 161.640625 171.015625 C 163.402344 170.480469 165.136719 169.859375 166.839844 169.15625 C 168.539062 168.449219 170.203125 167.664062 171.828125 166.796875 C 173.453125 165.925781 175.03125 164.980469 176.5625 163.957031 C 178.09375 162.933594 179.574219 161.839844 180.996094 160.667969 C 182.421875 159.5 183.785156 158.265625 185.085938 156.960938 C 186.390625 155.660156 187.625 154.296875 188.792969 152.871094 C 189.964844 151.449219 191.058594 149.96875 192.082031 148.4375 C 193.105469 146.90625 194.050781 145.328125 194.921875 143.703125 C 195.789062 142.078125 196.574219 140.414062 197.28125 138.714844 C 197.984375 137.011719 198.605469 135.277344 199.140625 133.515625 C 199.675781 131.753906 200.121094 129.96875 200.480469 128.160156 C 200.839844 126.355469 201.109375 124.535156 201.292969 122.699219 C 201.472656 120.867188 201.5625 119.03125 201.5625 117.1875 L 201.5625 103.125 C 201.5625 101.28125 201.472656 99.445312 201.292969 97.613281 C 201.109375 95.777344 200.839844 93.957031 200.480469 92.152344 C 200.121094 90.34375 199.675781 88.558594 199.140625 86.796875 C 198.605469 85.035156 197.984375 83.300781 197.28125 81.597656 C 196.574219 79.898438 195.789062 78.234375 194.921875 76.609375 C 194.050781 74.984375 193.105469 73.40625 192.082031 71.875 C 191.058594 70.34375 189.964844 68.863281 188.792969 67.441406 C 187.625 66.015625 186.390625 64.652344 185.085938 63.351562 C 183.785156 62.046875 182.421875 60.8125 180.996094 59.644531 C 179.574219 58.472656 178.09375 57.378906 176.5625 56.355469 C 175.03125 55.332031 173.453125 54.386719 171.828125 53.515625 C 170.203125 52.648438 168.539062 51.863281 166.839844 51.15625 C 165.136719 50.453125 163.402344 49.832031 161.640625 49.296875 C 159.878906 48.761719 158.09375 48.316406 156.285156 47.957031 C 154.480469 47.597656 152.660156 47.328125 150.824219 47.144531 C 148.992188 46.964844 147.15625 46.875 145.3125 46.875 C 143.46875 46.875 141.632812 46.964844 139.800781 47.144531 C 137.964844 47.328125 136.144531 47.597656 134.339844 47.957031 C 132.53125 48.316406 130.746094 48.761719 128.984375 49.296875 C 127.222656 49.832031 125.488281 50.453125 123.785156 51.15625 C 122.085938 51.863281 120.421875 52.648438 118.796875 53.515625 C 117.171875 54.386719 115.59375 55.332031 114.0625 56.355469 C 112.53125 57.378906 111.050781 58.472656 109.628906 59.644531 C 108.203125 60.8125 106.839844 62.046875 105.539062 63.351562 C 104.234375 64.652344 103 66.015625 101.832031 67.441406 C 100.660156 68.863281 99.566406 70.34375 98.542969 71.875 C 97.519531 73.40625 96.574219 74.984375 95.703125 76.609375 C 94.835938 78.234375 94.050781 79.898438 93.34375 81.597656 C 92.640625 83.300781 92.019531 85.035156 91.484375 86.796875 C 90.949219 88.558594 90.503906 90.34375 90.144531 92.152344 C 89.785156 93.957031 89.515625 95.777344 89.332031 97.613281 C 89.152344 99.445312 89.0625 101.28125 89.0625 103.125 L 89.0625 117.1875 C 89.0625 119.03125 89.152344 120.867188 89.332031 122.699219 C 89.515625 124.535156 89.785156 126.355469 90.144531 128.160156 C 90.503906 129.96875 90.949219 131.753906 91.484375 133.515625 C 92.019531 135.277344 92.640625 137.011719 93.34375 138.714844 C 94.050781 140.414062 94.835938 142.078125 95.703125 143.703125 C 96.574219 145.328125 97.519531 146.90625 98.542969 148.4375 C 99.566406 149.96875 100.660156 151.449219 101.832031 152.871094 C 103 154.296875 104.234375 155.660156 105.539062 156.960938 C 106.839844 158.265625 108.203125 159.5 109.628906 160.667969 C 111.050781 161.839844 112.53125 162.933594 114.0625 163.957031 C 115.59375 164.980469 117.171875 165.925781 118.796875 166.796875 C 120.421875 167.664062 122.085938 168.449219 123.785156 169.15625 C 125.488281 169.859375 127.222656 170.480469 128.984375 171.015625 C 130.746094 171.550781 132.53125 171.996094 134.339844 172.355469 C 136.144531 172.714844 137.964844 172.984375 139.800781 173.167969 C 141.632812 173.347656 143.46875 173.4375 145.3125 173.4375 Z M 145.3125 173.4375 "/></g></g></svg>