<svg xmlns="http://www.w3.org/2000/svg" xmlns:xlink="http://www.w3.org/1999/xlink" width="500" zoomAndPan="magnify" viewBox="0 0 375 374.999991" height="500" preserveAspectRatio="xMidYMid meet" version="1.0"><defs><clipPath id="4fc80743c8"><path d="M 50 46.875 L 327 46.875 L 327 327 L 50 327 Z M 50 46.875 " clip-rule="nonzero"/></clipPath></defs><g clip-path="url(#4fc80743c8)"><path fill="#ffffff" d="M 248.511719 54.914062 L 295.980469 54.914062 L 265.773438 188.683594 C 261.457031 214.574219 257.144531 227.523438 252.828125 236.148438 C 261.457031 270.671875 270.089844 287.933594 287.347656 287.933594 C 304.609375 287.933594 308.925781 274.988281 313.238281 253.410156 L 326.1875 253.410156 C 326.1875 274.988281 321.871094 292.25 313.238281 305.195312 C 304.609375 318.140625 295.980469 326.769531 283.035156 326.769531 C 274.402344 326.769531 265.773438 322.457031 261.457031 313.824219 C 257.144531 305.195312 252.828125 287.933594 244.195312 262.042969 C 222.621094 305.195312 192.414062 322.457031 149.261719 322.457031 C 119.058594 322.457031 93.164062 309.511719 75.90625 287.933594 C 58.644531 262.046875 50.015625 231.839844 50.015625 184.371094 C 50.015625 141.21875 58.644531 106.695312 80.21875 80.804688 C 101.796875 54.914062 123.371094 46.285156 149.261719 46.285156 C 170.839844 46.285156 183.785156 54.914062 196.730469 67.859375 C 209.675781 80.804688 218.304688 102.378906 231.25 136.902344 Z M 222.621094 167.109375 C 213.992188 136.902344 205.359375 111.011719 192.414062 93.753906 C 179.46875 76.492188 166.523438 67.863281 153.578125 67.863281 C 119.054688 67.863281 101.796875 106.699219 101.796875 188.6875 C 101.796875 266.359375 119.058594 305.195312 153.578125 305.195312 C 183.785156 305.195312 205.359375 270.675781 218.304688 201.632812 Z M 222.621094 167.109375 " fill-opacity="1" fill-rule="nonzero"/></g></svg>